<?xml version="1.0" encoding="utf-8"?>
<!-- Generator: Adobe Illustrator 27.5.0, SVG Export Plug-In . SVG Version: 6.00 Build 0)  -->
<svg version="1.1" xmlns="http://www.w3.org/2000/svg" xmlns:xlink="http://www.w3.org/1999/xlink" x="0px" y="0px"
	 viewBox="0 0 500 500" style="enable-background:new 0 0 500 500;" xml:space="preserve">
<g id="Floor">
	<path style="fill:#F5F5F5;" d="M407.586,260.907c-87.602-50.577-229.171-50.577-316.203,0.001
		C4.344,311.49,4.806,393.491,92.408,444.069c87.608,50.58,229.176,50.58,316.214-0.002
		C495.656,393.489,495.194,311.487,407.586,260.907z"/>
</g>
<g id="Shadows_1_">
	<path style="fill:#E6E6E6;" d="M348.219,387.448c22.653,13.079,22.772,34.282,0.268,47.359c-22.505,13.079-59.11,13.079-81.763,0
		c-22.651-13.078-22.771-34.281-0.265-47.359C288.963,374.371,325.568,374.371,348.219,387.448z"/>
	<path style="fill:#E6E6E6;" d="M366.54,352.936c16.813,9.707,43.982,9.707,60.686,0c8.351-4.853,12.505-11.214,12.469-17.575
		c-0.036-6.361-4.261-12.722-12.668-17.576c-16.812-9.707-43.981-9.706-60.684,0c-8.352,4.854-12.506,11.215-12.47,17.576
		C353.908,341.722,358.133,348.083,366.54,352.936z"/>
	<path style="fill:#E6E6E6;" d="M49.896,371.593c9.793,5.654,25.619,5.654,35.349,0c4.864-2.827,7.284-6.532,7.263-10.237
		c-0.021-3.705-2.482-7.411-7.379-10.238c-9.793-5.654-25.619-5.654-35.348,0c-4.865,2.827-7.285,6.533-7.264,10.238
		C42.538,365.061,44.999,368.766,49.896,371.593z"/>
	<path style="fill:#E6E6E6;" d="M86.351,393.257l5.653,3.302c1.272,0.743,2.844,0.751,4.123,0.021l154.561-88.206
		c0.689-0.393,0.694-1.385,0.009-1.785l-5.653-3.302c-1.272-0.743-2.844-0.751-4.123-0.021L86.36,391.472
		C85.671,391.865,85.666,392.857,86.351,393.257z"/>
</g>
<g id="Windows">
	<g>
		<g>
			<g>
				<g style="enable-background:new    ;">
					<g>
						<polygon style="fill:#F0F0F0;" points="286.838,26.428 290.313,24.408 290.11,128.425 286.634,130.445 						"/>
					</g>
					<g>
						<polygon style="fill:#F5F5F5;" points="286.634,130.445 290.11,128.425 330.124,151.394 326.648,153.414 						"/>
					</g>
					<g>
						<path style="fill:#E0E0E0;" d="M282.852,19.524l48.012,27.586l-0.23,113.207l-48.012-27.586L282.852,19.524z M326.648,153.414
							l0.204-104.018l-40.014-22.969l-0.204,104.017L326.648,153.414"/>
					</g>
					<g>
						<polygon style="fill:#F5F5F5;" points="282.852,19.524 286.328,17.504 334.339,45.091 330.863,47.111 						"/>
					</g>
					<g>
						<polygon style="fill:#F0F0F0;" points="330.863,47.111 334.339,45.091 334.109,158.298 330.634,160.318 						"/>
					</g>
				</g>
			</g>
		</g>
		<g>
			<polygon style="fill:#F5F5F5;" points="286.641,65.036 290.117,63.016 326.852,84.146 326.852,88.165 			"/>
			<polygon style="fill:#E0E0E0;" points="286.641,65.036 286.641,65.036 286.641,65.036 326.852,88.165 326.852,92.755 
				286.634,69.648 			"/>
			
				<rect x="306.746" y="53.407" transform="matrix(0.4986 -0.8668 0.8668 0.4986 87.4058 304.308)" style="fill:#E0E0E0;" width="0" height="46.387"/>
		</g>
	</g>
	<g>
		<g>
			<g>
				<g style="enable-background:new    ;">
					<g>
						<polygon style="fill:#F0F0F0;" points="348.047,61.642 351.523,59.622 351.319,163.64 347.844,165.66 						"/>
					</g>
					<g>
						<polygon style="fill:#F5F5F5;" points="347.844,165.66 351.319,163.64 391.333,186.609 387.858,188.628 						"/>
					</g>
					<g>
						<path style="fill:#E0E0E0;" d="M344.062,54.738l48.012,27.586l-0.23,113.207l-48.012-27.586L344.062,54.738z M387.858,188.628
							l0.204-104.017l-40.014-22.969l-0.204,104.017L387.858,188.628"/>
					</g>
					<g>
						<polygon style="fill:#F5F5F5;" points="344.062,54.738 347.538,52.718 395.549,80.305 392.073,82.325 						"/>
					</g>
					<g>
						<polygon style="fill:#F0F0F0;" points="392.073,82.325 395.549,80.305 395.319,193.512 391.843,195.532 						"/>
					</g>
				</g>
			</g>
		</g>
		<g>
			<polygon style="fill:#F5F5F5;" points="347.851,100.251 351.327,98.231 388.061,119.36 388.061,123.379 			"/>
			<polygon style="fill:#E0E0E0;" points="347.851,100.251 347.851,100.251 347.851,100.251 388.061,123.379 388.061,127.969 
				347.844,104.862 			"/>
			
				<rect x="367.956" y="88.621" transform="matrix(0.4986 -0.8668 0.8668 0.4986 87.5712 375.023)" style="fill:#E0E0E0;" width="0" height="46.387"/>
		</g>
	</g>
	<g>
		<g>
			<g>
				<g style="enable-background:new    ;">
					<g>
						<polygon style="fill:#F0F0F0;" points="409.257,96.857 412.733,94.837 412.529,198.854 409.053,200.874 						"/>
					</g>
					<g>
						<polygon style="fill:#F5F5F5;" points="409.053,200.874 412.529,198.854 452.543,221.823 449.068,223.843 						"/>
					</g>
					<g>
						<path style="fill:#E0E0E0;" d="M405.271,89.953l48.012,27.586l-0.23,113.207l-48.012-27.586L405.271,89.953z M449.068,223.843
							l0.204-104.017l-40.014-22.969l-0.204,104.017L449.068,223.843"/>
					</g>
					<g>
						<polygon style="fill:#F5F5F5;" points="405.271,89.953 408.747,87.933 456.759,115.519 453.283,117.539 						"/>
					</g>
					<g>
						<polygon style="fill:#F0F0F0;" points="453.283,117.539 456.759,115.519 456.529,228.727 453.053,230.747 						"/>
					</g>
				</g>
			</g>
		</g>
		<g>
			<polygon style="fill:#F5F5F5;" points="409.061,135.465 412.537,133.445 449.271,154.574 449.271,158.593 			"/>
			<polygon style="fill:#E0E0E0;" points="409.061,135.465 409.061,135.465 409.061,135.465 449.271,158.593 449.271,163.184 
				409.053,140.077 			"/>
			
				<rect x="429.166" y="123.836" transform="matrix(0.4986 -0.8668 0.8668 0.4986 87.7375 445.7391)" style="fill:#E0E0E0;" width="0" height="46.387"/>
		</g>
	</g>
</g>
<g id="Plant">
	<g>
		<g>
			<path style="fill:#FFFFFF;" d="M85.446,328.29l-18.98,0.553l-18.98-0.553c-0.818,12.817,1.685,25.88,5.135,32.26l0.013-0.002
				c0.618,1.4,1.86,2.728,3.757,3.823c5.6,3.234,14.651,3.234,20.215,0c1.929-1.121,3.17-2.486,3.755-3.922
				C83.784,354.034,86.259,341.044,85.446,328.29z"/>
			<g>
				<path style="fill:#EBEBEB;" d="M79.843,320.516c7.437,4.293,7.476,11.254,0.088,15.547c-7.388,4.294-19.405,4.294-26.842,0
					c-7.436-4.293-7.475-11.254-0.087-15.548C60.39,316.223,72.406,316.223,79.843,320.516z"/>
			</g>
			<g>
				<path style="fill:#E0E0E0;" d="M76.902,322.225c5.802,3.35,5.832,8.78,0.069,12.13c-5.764,3.35-15.14,3.35-20.941,0
					c-5.801-3.35-5.832-8.78-0.068-12.13C61.725,318.875,71.101,318.875,76.902,322.225z"/>
			</g>
			<g style="opacity:0.15;">
				<path d="M76.902,322.225c5.802,3.35,5.832,8.78,0.069,12.13c-5.764,3.35-15.14,3.35-20.941,0
					c-5.801-3.35-5.832-8.78-0.068-12.13C61.725,318.875,71.101,318.875,76.902,322.225z"/>
			</g>
		</g>
		<g>
			<path style="fill:#BA68C8;" d="M97.672,247.299c-42.772,14.005-43.159,42.619-33.517,62.996
				c2.432,4.125,9.791,6.34,16.197-19.002l-11.234,1.44l13.092-6.636l3.401-10.165l-10.916,0.811l13.856-5.828
				C93.655,255.473,97.672,247.299,97.672,247.299z"/>
			<path style="opacity:0.2;" d="M97.672,247.299c-42.772,14.005-43.159,42.619-33.517,62.996c2.432,4.125,9.791,6.34,16.197-19.002
				l-11.234,1.44l13.092-6.636l3.401-10.165l-10.916,0.811l13.856-5.828C93.655,255.473,97.672,247.299,97.672,247.299z"/>
			<path style="fill:#FFFFFF;" d="M85.574,254.455c-22.556,17.119-24.592,36.746-18.22,57.236
				C65.1,293.648,62.664,275.406,85.574,254.455z"/>
		</g>
		<g>
			<path style="fill:#BA68C8;" d="M25.226,276.366c42.161,5.936,47.276,32.521,41.682,53.1c-1.579,4.246-8.065,7.531-18.242-15.006
				l10.702-0.525l-13.295-4.005l-4.856-8.902l10.301-1.059l-13.873-3.125C30.325,283.311,25.226,276.366,25.226,276.366z"/>
			<path style="opacity:0.2;fill:#FFFFFF;" d="M25.226,276.366c42.161,5.936,47.276,32.521,41.682,53.1
				c-1.579,4.246-8.065,7.531-18.242-15.006l10.702-0.525l-13.295-4.005l-4.856-8.902l10.301-1.059l-13.873-3.125
				C30.325,283.311,25.226,276.366,25.226,276.366z"/>
			<path style="fill:#FFFFFF;" d="M37.682,281.02c23.851,12.196,29.008,30.136,26.478,50.277
				C63.262,314.12,62.5,296.726,37.682,281.02z"/>
		</g>
		<g>
			<path style="fill:#BA68C8;" d="M110.011,286.328c-38.665,0.632-46.25,24.021-43.511,43.195
				c0.948,4.003,6.427,7.691,18.121-11.484l-9.587-1.671l12.432-2.121l5.373-7.48l-9.166-2.107l12.853-1.264
				C104.638,292.017,110.011,286.328,110.011,286.328z"/>
			<path style="fill:#FFFFFF;" d="M98.264,289.129c-22.862,8.323-29.518,23.915-29.492,42.352
				C71.504,316.099,74.138,300.507,98.264,289.129z"/>
		</g>
	</g>
</g>
<g id="Table_1_">
	<g>
		<g>
			<g>
				<path style="fill:#E0E0E0;" d="M394.015,297.723c0.275,29.879,0.593,58.648,0.593,58.648c0.002,0.322,0.216,0.645,0.642,0.891
					c0.852,0.492,2.23,0.492,3.077,0c0.423-0.246,0.634-0.569,0.632-0.891c0,0,0.318-28.761,0.593-58.636
					C397.708,297.8,395.859,297.795,394.015,297.723z"/>
				<path style="fill:#E0E0E0;" d="M357.709,334.817c0.002,0.323,0.216,0.645,0.642,0.891c0.852,0.492,2.23,0.492,3.077,0
					c0.423-0.246,0.634-0.569,0.632-0.891c0,0,1.385-20.551,3.374-44.982c-1.995-1.239-3.731-2.567-5.209-3.96
					C358.619,312.016,357.709,334.817,357.709,334.817z"/>
				<path style="fill:#E0E0E0;" d="M431.507,334.817c-0.002,0.323,0.209,0.645,0.632,0.891c0.847,0.492,2.225,0.492,3.077,0
					c0.426-0.246,0.641-0.569,0.642-0.891c0,0-0.907-22.727-2.508-48.814c-1.477,1.389-3.213,2.71-5.208,3.943
					C430.126,314.328,431.507,334.817,431.507,334.817z"/>
				<path style="opacity:0.1;" d="M394.015,297.723c0.275,29.879,0.593,58.648,0.593,58.648c0.002,0.322,0.216,0.645,0.642,0.891
					c0.852,0.492,2.23,0.492,3.077,0c0.423-0.246,0.634-0.569,0.632-0.891c0,0,0.318-28.761,0.593-58.636
					C397.708,297.8,395.859,297.795,394.015,297.723z"/>
				<path style="opacity:0.1;" d="M357.709,334.817c0.002,0.323,0.216,0.645,0.642,0.891c0.852,0.492,2.23,0.492,3.077,0
					c0.423-0.246,0.634-0.569,0.632-0.891c0,0,1.385-20.551,3.374-44.982c-1.995-1.239-3.731-2.567-5.209-3.96
					C358.619,312.016,357.709,334.817,357.709,334.817z"/>
				<path style="opacity:0.1;" d="M431.507,334.817c-0.002,0.323,0.209,0.645,0.632,0.891c0.847,0.492,2.225,0.492,3.077,0
					c0.426-0.246,0.641-0.569,0.642-0.891c0,0-0.907-22.727-2.508-48.814c-1.477,1.389-3.213,2.71-5.208,3.943
					C430.126,314.328,431.507,334.817,431.507,334.817z"/>
				<path style="fill:#E0E0E0;" d="M439.695,268.098c0.036,6.361-4.118,12.722-12.469,17.575c-16.704,9.707-43.873,9.707-60.686,0
					c-8.406-4.853-12.631-11.214-12.667-17.576h0v4.833c0.025,4.492,2.15,8.983,6.352,12.944c1.478,1.394,3.215,2.721,5.209,3.96
					c0.363,0.226,0.725,0.452,1.105,0.671c7.664,4.425,17.48,6.826,27.476,7.216c1.844,0.072,3.693,0.077,5.537,0.012
					c10.088-0.357,19.988-2.762,27.674-7.228c0.316-0.184,0.613-0.373,0.917-0.561c1.995-1.233,3.731-2.554,5.208-3.943
					c4.248-3.992,6.369-8.53,6.344-13.072h0L439.695,268.098L439.695,268.098z"/>
				<path style="opacity:0.1;" d="M439.695,268.098c0.036,6.361-4.118,12.722-12.469,17.575c-16.704,9.707-43.873,9.707-60.686,0
					c-8.406-4.853-12.631-11.214-12.667-17.576h0v4.833c0.025,4.492,2.15,8.983,6.352,12.944c1.478,1.394,3.215,2.721,5.209,3.96
					c0.363,0.226,0.725,0.452,1.105,0.671c7.664,4.425,17.48,6.826,27.476,7.216c1.844,0.072,3.693,0.077,5.537,0.012
					c10.088-0.357,19.988-2.762,27.674-7.228c0.316-0.184,0.613-0.373,0.917-0.561c1.995-1.233,3.731-2.554,5.208-3.943
					c4.248-3.992,6.369-8.53,6.344-13.072h0L439.695,268.098L439.695,268.098z"/>
				<path style="fill:#E0E0E0;" d="M366.54,285.673c16.813,9.707,43.982,9.707,60.686,0c8.351-4.853,12.505-11.214,12.469-17.575
					c-0.036-6.361-4.261-12.722-12.668-17.576c-16.812-9.707-43.981-9.706-60.684,0c-8.352,4.854-12.506,11.215-12.47,17.576
					C353.908,274.459,358.133,280.82,366.54,285.673z"/>
				<g style="opacity:0.3;">
					<path d="M394.015,297.723c0.018,1.999,0.037,3.993,0.056,5.974c1.807,0.069,3.619,0.074,5.425,0.012
						c0.019-1.981,0.037-3.975,0.056-5.974C397.708,297.8,395.859,297.795,394.015,297.723z"/>
					<path d="M360.224,285.875c-0.117,1.907-0.23,3.794-0.34,5.658c1.439,1.403,3.137,2.741,5.091,3.993
						c0.149-1.869,0.301-3.766,0.458-5.691C363.439,288.596,361.703,287.269,360.224,285.875z"/>
					<path d="M433.351,286.003c-1.477,1.389-3.213,2.71-5.208,3.943c0.157,1.926,0.309,3.823,0.458,5.692
						c1.956-1.246,3.651-2.58,5.09-3.979C433.581,289.795,433.468,287.909,433.351,286.003z"/>
				</g>
			</g>
			<g style="opacity:0.5;">
				<path style="fill:#E0E0E0;" d="M394.015,297.723c0.275,29.879,0.593,58.648,0.593,58.648c0.002,0.322,0.216,0.645,0.642,0.891
					c0.852,0.492,2.23,0.492,3.077,0c0.423-0.246,0.634-0.569,0.632-0.891c0,0,0.318-28.761,0.593-58.636
					C397.708,297.8,395.859,297.795,394.015,297.723z"/>
				<path style="fill:#E0E0E0;" d="M357.709,334.817c0.002,0.323,0.216,0.645,0.642,0.891c0.852,0.492,2.23,0.492,3.077,0
					c0.423-0.246,0.634-0.569,0.632-0.891c0,0,1.385-20.551,3.374-44.982c-1.995-1.239-3.731-2.567-5.209-3.96
					C358.619,312.016,357.709,334.817,357.709,334.817z"/>
				<path style="fill:#E0E0E0;" d="M431.507,334.817c-0.002,0.323,0.209,0.645,0.632,0.891c0.847,0.492,2.225,0.492,3.077,0
					c0.426-0.246,0.641-0.569,0.642-0.891c0,0-0.907-22.727-2.508-48.814c-1.477,1.389-3.213,2.71-5.208,3.943
					C430.126,314.328,431.507,334.817,431.507,334.817z"/>
				<path style="fill:#FFFFFF;" d="M439.695,268.098c0.036,6.361-4.118,12.722-12.469,17.575c-16.704,9.707-43.873,9.707-60.686,0
					c-8.406-4.853-12.631-11.214-12.667-17.576h0v4.833c0.025,4.492,2.15,8.983,6.352,12.944c1.478,1.394,3.215,2.721,5.209,3.96
					c0.363,0.226,0.725,0.452,1.105,0.671c7.664,4.425,17.48,6.826,27.476,7.216c1.844,0.072,3.693,0.077,5.537,0.012
					c10.088-0.357,19.988-2.762,27.674-7.228c0.316-0.184,0.613-0.373,0.917-0.561c1.995-1.233,3.731-2.554,5.208-3.943
					c4.248-3.992,6.369-8.53,6.344-13.072h0L439.695,268.098L439.695,268.098z"/>
				<path style="fill:#FFFFFF;" d="M366.54,285.673c16.813,9.707,43.982,9.707,60.686,0c8.351-4.853,12.505-11.214,12.469-17.575
					c-0.036-6.361-4.261-12.722-12.668-17.576c-16.812-9.707-43.981-9.706-60.684,0c-8.352,4.854-12.506,11.215-12.47,17.576
					C353.908,274.459,358.133,280.82,366.54,285.673z"/>
			</g>
		</g>
		<g>
			<g>
				<path style="fill:#FFFFFF;" d="M411.163,241.587l-14.462,0.421l-14.462-0.421c-0.623,9.766,1.284,19.72,3.913,24.581l0.01-0.001
					c0.471,1.067,1.417,2.078,2.863,2.913c4.267,2.464,11.163,2.464,15.403,0c1.47-0.854,2.415-1.894,2.861-2.989
					C409.897,261.203,411.783,251.305,411.163,241.587z"/>
				<g>
					<path style="fill:#EBEBEB;" d="M406.893,235.663c5.666,3.271,5.696,8.575,0.067,11.847c-5.63,3.272-14.786,3.272-20.453,0
						c-5.666-3.271-5.696-8.575-0.066-11.847C392.071,232.392,401.227,232.392,406.893,235.663z"/>
				</g>
				<g>
					<path style="fill:#E0E0E0;" d="M404.653,236.965c4.421,2.552,4.444,6.69,0.052,9.243c-4.392,2.552-11.536,2.553-15.957,0
						c-4.421-2.552-4.444-6.69-0.052-9.242C393.088,234.413,400.232,234.413,404.653,236.965z"/>
				</g>
				<g style="opacity:0.15;">
					<path d="M404.653,236.965c4.421,2.552,4.444,6.69,0.052,9.243c-4.392,2.552-11.536,2.553-15.957,0
						c-4.421-2.552-4.444-6.69-0.052-9.242C393.088,234.413,400.232,234.413,404.653,236.965z"/>
				</g>
			</g>
			<g>
				<path style="fill:#BA68C8;" d="M395.494,241.995c2.428,1.99,5.68,2.728,8.483,1.929c2.795-0.796,5.072-3.101,5.945-6.011
					c-1.768-0.769-3.16-1.901-4.643-3.222c2.067-0.545,4.466-0.46,6.573,0.232c1.139-1.738,1.431-4.24,0.496-6.268
					c-2.494-1.095-5.358-1.298-7.841-0.542c2.198-1.903,4.99-2.787,7.928-2.499c0.289-7.107-1.904-12.179-1.904-12.179
					c-5.392,0.281-10.62,2.604-12.383,4.276c-0.3,2.157,0.597,5.728,0.597,5.728c-2.463-1.366-2.506-3.704-2.506-3.704
					c-3.374,0.844-4.817,2.529-5.343,3.813c0.248,2.113,2.198,5.644,3.194,6.471c-3.169-0.958-4.454-4.487-4.454-4.487
					C386.521,232.917,387.115,241.276,395.494,241.995z"/>
				<path style="opacity:0.2;" d="M395.494,241.995c2.428,1.99,5.68,2.728,8.483,1.929c2.795-0.796,5.072-3.101,5.945-6.011
					c-1.768-0.769-3.16-1.901-4.643-3.222c2.067-0.545,4.466-0.46,6.573,0.232c1.139-1.738,1.431-4.24,0.496-6.268
					c-2.494-1.095-5.358-1.298-7.841-0.542c2.198-1.903,4.99-2.787,7.928-2.499c0.289-7.107-1.904-12.179-1.904-12.179
					c-5.392,0.281-10.62,2.604-12.383,4.276c-0.3,2.157,0.597,5.728,0.597,5.728c-2.463-1.366-2.506-3.704-2.506-3.704
					c-3.374,0.844-4.817,2.529-5.343,3.813c0.248,2.113,2.198,5.644,3.194,6.471c-3.169-0.958-4.454-4.487-4.454-4.487
					C386.521,232.917,387.115,241.276,395.494,241.995z"/>
				<path style="opacity:0.3;fill:#FFFFFF;" d="M395.494,241.995c2.428,1.99,5.68,2.728,8.483,1.929
					c2.795-0.796,5.072-3.101,5.945-6.011c-1.768-0.769-3.16-1.901-4.643-3.222c2.067-0.545,4.466-0.46,6.573,0.232
					c1.139-1.738,1.431-4.24,0.496-6.268c-2.494-1.095-5.358-1.298-7.841-0.542c2.198-1.903,4.99-2.787,7.928-2.499
					c0.289-7.107-1.904-12.179-1.904-12.179c-5.392,0.281-10.62,2.604-12.383,4.276c-0.3,2.157,0.597,5.728,0.597,5.728
					c-2.463-1.366-2.506-3.704-2.506-3.704c-3.374,0.844-4.817,2.529-5.343,3.813c0.248,2.113,2.198,5.644,3.194,6.471
					c-3.169-0.958-4.454-4.487-4.454-4.487C386.521,232.917,387.115,241.276,395.494,241.995z"/>
				<g>
					<path style="fill:#F5F5F5;" d="M395.305,242.795c-0.008,0-0.016,0-0.024-0.001c-0.172-0.013-0.3-0.162-0.287-0.334
						c0.515-6.809,4.411-18.05,13.699-27.321c0.122-0.121,0.319-0.122,0.44,0.001c0.122,0.122,0.122,0.319,0,0.44
						c-9.167,9.151-13.011,20.225-13.517,26.927C395.603,242.671,395.466,242.795,395.305,242.795z"/>
				</g>
			</g>
			<g>
				<path style="fill:#BA68C8;" d="M397.853,245.639c-2.153,1.757-5.162,2.41-7.85,1.703c-2.688-0.707-4.986-2.755-5.997-5.344
					c1.626-0.679,2.872-1.682,4.191-2.851c-1.988-0.492-4.256-0.425-6.212,0.184c-1.193-1.553-1.63-3.786-0.87-5.591
					c2.3-0.962,5.004-1.126,7.4-0.438c-2.199-1.708-4.903-2.515-7.677-2.278c-0.729-6.356,1.036-10.873,1.036-10.873
					c5.14,0.312,10.228,2.44,11.993,3.946c0.415,1.921-0.208,5.088-0.208,5.088c2.232-1.194,2.129-3.271,2.129-3.271
					c3.219,0.779,4.673,2.284,5.244,3.426c-0.104,1.869-1.713,4.984-2.596,5.711c2.907-0.831,3.894-3.946,3.894-3.946
					C405.68,237.647,405.628,245.013,397.853,245.639z"/>
				<path style="opacity:0.3;fill:#FFFFFF;" d="M397.853,245.639c-2.153,1.757-5.162,2.41-7.85,1.703
					c-2.688-0.707-4.986-2.755-5.997-5.344c1.626-0.679,2.872-1.682,4.191-2.851c-1.988-0.492-4.256-0.425-6.212,0.184
					c-1.193-1.553-1.63-3.786-0.87-5.591c2.3-0.962,5.004-1.126,7.4-0.438c-2.199-1.708-4.903-2.515-7.677-2.278
					c-0.729-6.356,1.036-10.873,1.036-10.873c5.14,0.312,10.228,2.44,11.993,3.946c0.415,1.921-0.208,5.088-0.208,5.088
					c2.232-1.194,2.129-3.271,2.129-3.271c3.219,0.779,4.673,2.284,5.244,3.426c-0.104,1.869-1.713,4.984-2.596,5.711
					c2.907-0.831,3.894-3.946,3.894-3.946C405.68,237.647,405.628,245.013,397.853,245.639z"/>
				<g>
					<path style="fill:#FFFFFF;" d="M398.06,246.382c-0.152,0-0.284-0.111-0.307-0.266c-0.885-5.929-5.193-15.77-14.423-23.993
						c-0.128-0.115-0.139-0.311-0.025-0.44c0.114-0.129,0.31-0.139,0.44-0.025c9.354,8.334,13.724,18.335,14.624,24.367
						c0.025,0.17-0.092,0.329-0.262,0.354C398.091,246.381,398.075,246.382,398.06,246.382z"/>
				</g>
			</g>
		</g>
	</g>
</g>
<g id="Device">
	<g>
		<g>
			<g>
				<path style="fill:#BA68C8;" d="M251.727,39.943l0.009-0.008c-0.259-0.91-0.532-1.721-0.964-2.404
					c-0.95-1.502-2.671-2.379-6.714-2.299c-0.212-0.002-1.27,0.106-1.651,0.323L90.546,121.929c-1.942,1.105-3.441,2.764-4.39,4.704
					c-0.72,1.471-1.133,3.098-1.133,4.792v247.064c0,4.408,2.588,6.071,5.463,6.257c1.23,0.08,2.512-0.106,3.667-0.471
					c0.018-0.006,0.029-0.024,0.046-0.032c0.147-0.053,0.295-0.095,0.438-0.177l151.866-86.481c3.411-1.943,5.516-5.567,5.516-9.493
					V41.134C252.019,40.694,251.902,40.299,251.727,39.943z"/>
				<path style="opacity:0.2;" d="M251.727,39.943l0.009-0.008c-0.259-0.91-0.532-1.721-0.964-2.404
					c-0.95-1.502-2.671-2.379-6.714-2.299c-0.212-0.002-1.27,0.106-1.651,0.323L90.546,121.929c-1.942,1.105-3.441,2.764-4.39,4.704
					c-0.72,1.471-1.133,3.098-1.133,4.792v247.064c0,4.408,2.588,6.071,5.463,6.257c1.23,0.08,2.512-0.106,3.667-0.471
					c0.018-0.006,0.029-0.024,0.046-0.032c0.147-0.053,0.295-0.095,0.438-0.177l151.866-86.481c3.411-1.943,5.516-5.567,5.516-9.493
					V41.134C252.019,40.694,251.902,40.299,251.727,39.943z"/>
				<path style="opacity:0.2;" d="M86.156,126.633c-0.72,1.471-1.133,3.098-1.133,4.792v247.064c0,4.408,2.588,6.071,5.463,6.257
					c-0.684-0.968-1.11-2.281-1.11-4.049V133.634c0-1.694,0.412-3.321,1.133-4.792c0.122-0.25,0.279-0.481,0.42-0.721l-4.22-2.437
					C86.516,125.995,86.317,126.304,86.156,126.633z"/>
				<path style="opacity:0.2;fill:#FFFFFF;" d="M244.058,35.232c-0.212-0.002-1.27,0.106-1.651,0.323L90.546,121.929
					c-1.612,0.917-2.897,2.229-3.838,3.754l4.22,2.437c0.949-1.623,2.279-3.02,3.971-3.982L246.76,37.764
					c0.382-0.217,1.439-0.325,1.651-0.323c0.9-0.018,1.674,0.017,2.361,0.091C249.822,36.029,248.101,35.152,244.058,35.232z"/>
			</g>
			<polygon style="fill:#455A64;" points="245.089,47.658 96.599,133.357 96.599,366.329 245.089,280.629 			"/>
			<g>
				<g>
					<path style="fill:#BA68C8;" d="M178.47,323.006c-2.739,1.582-5.242,5.198-5.611,8.081c-0.368,2.883,1.537,3.955,4.276,2.374
						c2.726-1.574,5.242-5.198,5.611-8.081C183.114,322.497,181.197,321.432,178.47,323.006z"/>
				</g>
				<g style="opacity:0.4;">
					<path d="M178.47,323.006c-2.739,1.582-5.242,5.198-5.611,8.081c-0.368,2.883,1.537,3.955,4.276,2.374
						c2.726-1.574,5.242-5.198,5.611-8.081C183.114,322.497,181.197,321.432,178.47,323.006z"/>
				</g>
			</g>
		</g>
	</g>
</g>
<g id="Screen">
	<g>
		<g>
			<path style="fill:#BA68C8;" d="M259.363,35.459v-7.562c0-0.387-0.103-0.735-0.257-1.049l0.008-0.007
				c-0.228-0.801-0.469-1.516-0.849-2.117c-0.837-1.323-2.353-2.095-5.913-2.025c-0.187-0.001-1.118,0.093-1.454,0.285
				L117.144,99.059c-1.71,0.973-3.031,2.435-3.867,4.143c-0.634,1.296-0.998,2.729-0.998,4.221v8.661l3.834,2.209L259.363,35.459z"
				/>
			<path style="fill:#BA68C8;" d="M116.113,118.294l-3.834-2.209v216.505c0,3.882,2.28,5.347,4.812,5.511
				c1.083,0.07,2.212-0.094,3.23-0.415c0.016-0.005,0.025-0.021,0.041-0.028c0.129-0.047,0.26-0.084,0.385-0.156l133.758-76.169
				c3.004-1.712,4.859-4.903,4.859-8.361V35.459L116.113,118.294z"/>
			<path style="opacity:0.2;" d="M113.277,103.202c-0.634,1.296-0.997,2.729-0.997,4.221v225.166c0,3.882,2.28,5.347,4.811,5.511
				c-0.602-0.852-0.977-2.009-0.977-3.566V109.368c0-1.492,0.363-2.925,0.998-4.221c0.108-0.22,0.246-0.424,0.37-0.635l-3.717-2.146
				C113.594,102.641,113.419,102.912,113.277,103.202z"/>
			<path style="opacity:0.2;fill:#FFFFFF;" d="M252.351,22.7c-0.187-0.001-1.118,0.094-1.454,0.285L117.144,99.059
				c-1.42,0.808-2.552,1.964-3.38,3.307l3.717,2.146c0.836-1.429,2.007-2.66,3.497-3.508L254.731,24.93
				c0.336-0.191,1.267-0.287,1.454-0.285c0.793-0.016,1.474,0.015,2.079,0.08C257.428,23.402,255.912,22.63,252.351,22.7z"/>
			<path style="opacity:0.05;fill:#FFFFFF;" d="M259.363,35.459v-7.562c0-0.387-0.103-0.735-0.257-1.049l0.008-0.007
				c-0.228-0.801-0.469-1.516-0.849-2.117c-0.837-1.323-2.353-2.095-5.913-2.025c-0.187-0.001-1.118,0.093-1.454,0.285
				L117.144,99.059c-1.71,0.973-3.031,2.435-3.867,4.143c-0.634,1.296-0.998,2.729-0.998,4.221v8.661l3.834,2.209L259.363,35.459z"
				/>
			<path style="opacity:0.3;fill:#FFFFFF;" d="M116.113,118.294l-3.834-2.209v216.505c0,3.882,2.28,5.347,4.812,5.511
				c1.083,0.07,2.212-0.094,3.23-0.415c0.016-0.005,0.025-0.021,0.041-0.028c0.129-0.047,0.26-0.084,0.385-0.156l133.758-76.169
				c3.004-1.712,4.859-4.903,4.859-8.361V35.459L116.113,118.294z"/>
		</g>
		<g>
			<g>
				<g>
					<polygon style="fill:#FFFFFF;" points="186.165,114.428 127.354,148.363 127.354,246.546 186.165,212.612 					"/>
					<polygon style="fill:#455A64;" points="130.619,150.248 182.899,120.083 182.899,210.726 130.619,240.891 					"/>
					<polygon style="opacity:0.3;fill:#FFFFFF;" points="130.619,150.248 182.899,120.083 182.899,210.726 130.619,240.891 					"/>
				</g>
				<g>
					<path style="fill:#E0E0E0;" d="M182.899,210.798l-52.28,30.165v-34.675l15.206-11.947l19.602-7.441l4.849-1.213
						c4.353-1.089,8.965-0.221,12.624,2.377l0,0V210.798z"/>
					<g>
						<path style="fill:#FFA8A7;" d="M152.71,185.542c0-0.001-0.001-0.002-0.001-0.004c0.004,0.002,0.008,0.004,0.012,0.006
							L152.71,185.542z"/>
						<path style="fill:#263238;" d="M142.445,168.031c-1.518-5.09-1.188-10.933,1.852-15.288c1.943-2.784,4.874-4.8,8.067-5.952
							c3.194-1.152,6.644-1.477,10.034-1.298c2.671,0.141,5.377,0.606,7.738,1.863c2.884,1.536,5.117,4.252,6.065,7.379
							c0.948,3.127,0.601,6.626-0.944,9.505c-1.219,2.272-3.108,4.107-5.067,5.783c-3.897,3.335-8.194,6.2-12.768,8.521
							c-1.143,0.58-2.304,1.127-3.48,1.638c-0.8,0.348-2.315,1.33-3.208,1.152c-0.904-0.18-1.842-1.858-2.382-2.544
							c-0.779-0.991-1.524-2.011-2.216-3.065C144.57,173.341,143.262,170.771,142.445,168.031z"/>
						<g>
							<g>
								<path style="fill:#BA68C8;" d="M169.764,210.748c-0.684-2.664-1.561-4.46-1.561-4.46l-2.501,0.595
									c0.184,1.393,0.286,2.855,0.333,4.306c0.032,0.997-0.082,4.702-0.263,9.49l5.602-3.232
									C170.88,215.252,170.346,213.013,169.764,210.748z"/>
								<path style="opacity:0.2;" d="M165.76,207.411c-0.02-0.175-0.034-0.355-0.056-0.528l2.501-0.595c0,0,0.054,0.137,0.142,0.37
									c-0.408,0.357-0.888,0.633-1.418,0.747C166.543,207.488,166.148,207.473,165.76,207.411z"/>
							</g>
							<g>
								<path style="fill:#BA68C8;" d="M164.363,200.335l-1.969-1.266l-4.588,2.501c2.012,1.842,5.411,2.143,5.411,2.143
									L164.363,200.335z"/>
								<path style="fill:#BA68C8;" d="M167.397,199.848l0.6-1.344l2.313,1.448c-0.451,1.504-1.503,2.201-1.503,2.201
									L167.397,199.848z"/>
								<path style="opacity:0.2;" d="M164.363,200.335l-1.969-1.266l-4.588,2.501c2.012,1.842,5.411,2.143,5.411,2.143
									L164.363,200.335z"/>
								<path style="opacity:0.2;" d="M167.397,199.848l0.6-1.344l2.313,1.448c-0.451,1.504-1.503,2.201-1.503,2.201
									L167.397,199.848z"/>
								<path style="fill:#BA68C8;" d="M163.218,203.712c0.195-1.163,0.583-2.341,1.146-3.378c1.011-0.162,2.022-0.324,3.034-0.486
									c0.551,0.702,1.036,1.494,1.41,2.305c0.149,2.161-0.603,4.135-0.603,4.135c-1.128,0.639-2.501,0.595-2.501,0.595
									C163.898,205.762,163.218,203.712,163.218,203.712z"/>
							</g>
						</g>
						<g>
							<path style="fill:#9C5C5C;" d="M150.379,176.858v13.886c2.765,3.805,14.376,8.639,15.048,8.524
								c0.845-0.144,0.015-7.626,0.015-8.274l-0.014-5.626c-2.256-0.342-4.469-0.742-6.461-1.158
								C155.002,183.381,151.784,180.586,150.379,176.858z"/>
							<path style="fill:#803E3E;" d="M160.375,187.504c1.651,0.457,3.348,0.707,5.053,0.896v-3.031
								c-2.256-0.342-4.469-0.742-6.461-1.158c-3.728-0.78-6.775-3.309-8.296-6.705c0.395,2.327,1.406,4.555,3.029,6.262
								C155.478,185.639,157.887,186.815,160.375,187.504z"/>
						</g>
						<g>
							<path style="fill:#9C5C5C;" d="M174.103,155.003c-2.074,2.128-5.477,3.524-8.448,3.557c-2.971,0.033-5.848-0.947-8.713-1.737
								c-0.247,1.38-0.949,2.676-1.97,3.637c-1.021,0.961-2.661,1.603-4.054,1.767c0.41,2.679,0.4,5.422-0.032,8.097
								c-0.092,0.567-0.474,1.084-1.025,1.245c-0.965,0.281-1.605-0.708-2.075-1.508c-0.535-0.911-1.196-1.779-2.093-2.336
								c-0.897-0.557-2.067-0.757-3.023-0.309c-0.781,0.366-1.336,1.122-1.594,1.945c-0.258,0.823-0.248,1.71-0.125,2.564
								c0.205,1.424,0.733,2.824,1.664,3.921c0.931,1.096,2.29,1.863,3.728,1.921c1.437,0.058,2.868-0.52,3.583-1.769l0.063,0.262
								c0.104,0.429,0.239,0.845,0.392,1.251c1.28,3.397,4.213,5.944,7.826,6.7c1.815,0.38,3.832,0.744,5.887,1.055
								c1.01,0.153,2.027,0.298,3.039,0.417c3.863,0.458,7.418-2.161,8.096-5.991C176.613,171.868,177.072,162.754,174.103,155.003z
								"/>
							<path style="fill:#37474F;" d="M168.18,164.886h-0.853h-0.912c-3.696-2.434-8.104-2.911-12.183-1.242v1.856l0.489,0.26
								c0.351,1.146,0.331,2.453,0.452,3.647c0.121,1.195,0.454,2.453,1.346,3.231c0.97,0.846,2.352,0.923,3.626,0.939
								c1.025,0.014,2.089,0.007,3.019-0.436c1.097-0.522,1.868-1.6,2.3-2.76c0.432-1.159,0.361-1.831,0.901-3.227
								c0.259-0.67,0.963-0.648,0.963-0.648s0.658-0.022,0.901,0.648c0.506,1.396,0.439,2.068,0.843,3.227
								c0.404,1.159,1.125,2.237,2.152,2.76c0.87,0.443,1.865,0.45,2.824,0.436c1.191-0.017,2.484-0.093,3.392-0.939
								c0.834-0.778,1.146-2.037,1.259-3.231c0.113-1.194,0.094-2.502,0.423-3.647l0.457-0.26v-1.856
								C175.763,161.975,171.638,162.452,168.18,164.886z M165.526,165.839l-0.07,0.663c-0.104,0.984-0.437,2.296-0.888,3.509
								c-0.229,0.615-0.771,1.722-1.821,2.222c-0.646,0.308-1.423,0.35-2.166,0.35l-0.398-0.003
								c-1.116-0.015-2.267-0.082-2.997-0.719c-0.568-0.495-0.905-1.342-1.031-2.591c-0.032-0.31-0.053-0.629-0.074-0.95
								c-0.059-0.887-0.01-2.833,0.069-4.238c1.014-0.283,2.049-0.425,3.09-0.425c2.158,0,4.298,0.624,6.213,1.808
								C165.557,165.53,165.526,165.839,165.526,165.839z M177.849,168.321c-0.02,0.321-0.04,0.64-0.07,0.95
								c-0.118,1.249-0.434,2.096-0.965,2.591c-0.683,0.637-1.76,0.704-2.804,0.719l-0.372,0.003c-0.695,0-1.422-0.042-2.026-0.35
								c-0.983-0.5-1.489-1.607-1.704-2.222c-0.423-1.214-0.734-2.525-0.831-3.509l-0.065-0.663c0,0-0.028-0.309,0.068-0.373
								c1.792-1.184,3.794-1.808,5.813-1.808c0.974,0,1.942,0.143,2.891,0.425C177.858,165.488,177.904,167.434,177.849,168.321z"/>
							<path style="fill:#37474F;" d="M154.232,163.645l-9.918,3.566c0.958,0.229,1.532,0.551,1.942,0.91
								c0.107,0.093,7.977-2.62,7.977-2.62V163.645z"/>
							<g>
								<polygon style="fill:#9C5C5C;" points="167.285,166.659 172.288,172.719 167.697,174.341 								"/>
								<polygon style="fill:#803E3E;" points="167.285,166.659 172.288,172.719 167.697,174.341 								"/>
								<path style="fill:#263238;" d="M160.216,167.417c-0.005,0.759,0.607,1.378,1.366,1.383c0.759,0.005,1.378-0.607,1.383-1.366
									c0.005-0.759-0.607-1.378-1.366-1.383C160.84,166.046,160.221,166.658,160.216,167.417z"/>
								<path style="fill:#263238;" d="M171.758,167.045c-0.005,0.759,0.607,1.378,1.366,1.383c0.759,0.005,1.378-0.607,1.383-1.366
									c0.005-0.759-0.607-1.378-1.366-1.383C172.382,165.674,171.763,166.286,171.758,167.045z"/>
								<path style="fill:#263238;" d="M171.031,160.945c1.227,0.139,2.454,0.278,3.681,0.416c-0.076-0.779-0.775-1.469-1.544-1.619
									C172.4,159.592,171.396,160.252,171.031,160.945z"/>
								<path style="fill:#263238;" d="M162.965,161.269c-1.235-0.011-2.469-0.022-3.704-0.033c0.17-0.764,0.948-1.364,1.729-1.42
									C161.771,159.76,162.688,160.537,162.965,161.269z"/>
								<path style="fill:#9C5C5C;" d="M162.413,176.773c1.763,0.542,3.525,1.084,5.288,1.626c-0.542,1.228-2.269,1.994-3.563,1.639
									C162.843,179.683,162.252,178.105,162.413,176.773z"/>
								<path style="fill:#5E2828;" d="M162.413,176.773c1.763,0.542,3.525,1.084,5.288,1.626c-0.542,1.228-2.269,1.994-3.563,1.639
									C162.843,179.683,162.252,178.105,162.413,176.773z"/>
								<path style="fill:#9C5C5C;" d="M165.87,179.934c-0.575,0.196-1.19,0.253-1.732,0.104c-1.016-0.279-1.592-1.311-1.718-2.387
									c0.699-0.105,1.433,0.014,2.042,0.373C165.164,178.437,165.666,179.147,165.87,179.934z"/>
								<path style="fill:#803E3E;" d="M165.87,179.934c-0.575,0.196-1.19,0.253-1.732,0.104c-1.016-0.279-1.592-1.311-1.718-2.387
									c0.699-0.105,1.433,0.014,2.042,0.373C165.164,178.437,165.666,179.147,165.87,179.934z"/>
							</g>
						</g>
						<path style="fill:#FAFAFA;" d="M165.427,199.269c-4.814-0.083-5.517,7.712-9.919,9.022l-11.214-13.65l3.479-5.172
							c0.694-1.032,1.597-1.907,2.651-2.568l0,0l0.04,1.873c0.023,1.113,0.624,2.133,1.586,2.694L165.427,199.269z"/>
						<path style="fill:#FAFAFA;" d="M165.427,199.269c2.677-0.832,6.672,2.514,6.672,2.514c-1.398-7.741-5.639-14.882-6.672-14.882
							V199.269z"/>
					</g>
				</g>
			</g>
			<g>
				<g>
					<path style="fill:#FFFFFF;" d="M161.554,101.727c1.442-0.833,2.349-0.497,2.353,0.887c0.004,1.378-0.898,2.758-2.34,3.59
						l-0.916,0.529l0.005,1.585l-1.493,0.862l-0.017-6.063L161.554,101.727z M161.478,104.901c0.616-0.356,0.921-0.857,0.919-1.416
						c-0.002-0.559-0.308-0.714-0.924-0.358l-0.831,0.48l0.005,1.774L161.478,104.901"/>
				</g>
				<g>
					<path style="fill:#FFFFFF;" d="M168.363,101.961l1.142,1.248l-1.6,0.924l-0.96-1.06l-0.814,0.47l0.005,1.612l-1.493,0.862
						l-0.017-6.063l2.415-1.394c1.436-0.829,2.344-0.494,2.348,0.89C169.39,100.34,169.018,101.218,168.363,101.961z
						 M166.958,101.738c0.616-0.356,0.927-0.86,0.925-1.419c-0.002-0.559-0.314-0.711-0.93-0.355l-0.831,0.48l0.005,1.774
						L166.958,101.738"/>
				</g>
				<g>
					<path style="fill:#FFFFFF;" d="M172.864,95.073c1.691-0.976,2.939-0.356,2.944,1.457c0.005,1.819-1.235,3.876-2.926,4.853
						c-1.685,0.973-2.933,0.353-2.938-1.467C169.938,98.103,171.179,96.046,172.864,95.073z M172.878,99.96
						c0.803-0.464,1.423-1.505,1.42-2.558c-0.003-1.046-0.627-1.369-1.43-0.906c-0.797,0.46-1.418,1.502-1.415,2.548
						C171.456,100.097,172.081,100.42,172.878,99.96"/>
				</g>
				<g>
					<polygon style="fill:#FFFFFF;" points="180.725,90.659 180.729,91.984 178.082,93.512 178.086,94.844 180.416,93.499 
						180.42,94.825 178.09,96.17 178.096,98.249 176.603,99.111 176.585,93.049 					"/>
				</g>
				<g>
					<polygon style="fill:#FFFFFF;" points="182.919,89.392 182.936,95.454 181.443,96.316 181.426,90.254 					"/>
				</g>
				<g>
					<polygon style="fill:#FFFFFF;" points="185.475,87.916 185.489,92.621 188.005,91.168 188.009,92.526 184,94.841 
						183.982,88.778 					"/>
				</g>
				<g>
					<polygon style="fill:#FFFFFF;" points="192.72,83.733 192.723,85.059 190.065,86.594 190.068,87.614 192.41,86.262 
						192.413,87.542 190.072,88.894 190.075,90.005 192.829,88.415 192.833,89.741 188.597,92.186 188.58,86.123 					"/>
				</g>
				<g>
					<path style="fill:#FFFFFF;" d="M198.335,80.491c1.753-1.012,2.95-0.531,2.955,1.327c0.005,1.865-1.185,3.724-2.938,4.736
						l-2.494,1.44l-0.017-6.063L198.335,80.491z M198.292,85.216c0.894-0.516,1.497-1.476,1.494-2.529
						c-0.003-1.046-0.61-1.308-1.503-0.792l-0.945,0.545l0.009,3.321L198.292,85.216"/>
				</g>
				<g>
					<path style="fill:#FFFFFF;" d="M205.161,76.55l2.353,4.714l-1.549,0.895l-0.422-0.935l-2.228,1.286l-0.41,1.414l-1.527,0.882
						l2.313-7.408L205.161,76.55z M203.746,80.993l1.357-0.784l-0.684-1.545L203.746,80.993"/>
				</g>
				<g>
					<path style="fill:#FFFFFF;" d="M215.346,70.67l2.353,4.714l-1.55,0.895l-0.416-0.938l-2.234,1.29l-0.41,1.415l-1.521,0.878
						l2.307-7.405L215.346,70.67z M213.931,75.113l1.357-0.784l-0.684-1.545L213.931,75.113"/>
				</g>
				<g>
					<polygon style="fill:#FFFFFF;" points="211.885,72.668 211.889,74.026 210.277,74.957 210.29,79.662 208.797,80.524 
						208.784,75.819 207.167,76.753 207.163,75.395 					"/>
				</g>
			</g>
			<g>
				<g>
					<g>
						<polygon style="fill:#BA68C8;" points="168.093,107.814 168.093,111.986 210.382,87.584 210.382,83.412 						"/>
					</g>
					<g style="opacity:0.6;">
						<polygon style="fill:#FFFFFF;" points="168.093,107.814 168.093,111.986 210.382,87.584 210.382,83.412 						"/>
					</g>
				</g>
				<g>
					<g>
						<polygon style="fill:#BA68C8;" points="178.657,109.18 178.657,113.352 203.262,99.07 203.262,94.898 						"/>
					</g>
					<g style="opacity:0.6;">
						<polygon style="fill:#FFFFFF;" points="178.657,109.18 178.657,113.352 203.262,99.07 203.262,94.898 						"/>
					</g>
				</g>
			</g>
			<g>
				<g>
					<g>
						<polygon style="fill:#BA68C8;" points="191.623,135.968 191.623,140.14 249.563,106.742 249.563,102.57 						"/>
						<polygon style="fill:#BA68C8;" points="191.623,143.123 191.623,147.295 236.678,121.33 236.678,117.158 						"/>
					</g>
					<g>
						<polygon style="fill:#BA68C8;" points="191.623,155.803 191.623,159.975 249.563,126.577 249.563,122.405 						"/>
						<polygon style="fill:#BA68C8;" points="191.623,162.958 191.623,167.13 249.563,133.77 249.563,129.598 						"/>
						<polygon style="fill:#BA68C8;" points="191.623,169.866 191.623,174.038 235.319,148.939 235.319,144.767 						"/>
					</g>
					<polygon style="fill:#BA68C8;" points="191.623,112.013 191.623,119.148 233.913,94.747 233.913,87.612 					"/>
					<polygon style="fill:#BA68C8;" points="191.623,122.808 191.623,127.299 219.717,111.161 219.717,106.669 					"/>
				</g>
				<g style="opacity:0.6;">
					<g>
						<polygon style="fill:#FFFFFF;" points="191.623,135.968 191.623,140.14 249.563,106.742 249.563,102.57 						"/>
						<polygon style="fill:#FFFFFF;" points="191.623,143.123 191.623,147.295 236.678,121.33 236.678,117.158 						"/>
					</g>
					<g>
						<polygon style="fill:#FFFFFF;" points="191.623,155.803 191.623,159.975 249.563,126.577 249.563,122.405 						"/>
						<polygon style="fill:#FFFFFF;" points="191.623,162.958 191.623,167.13 249.563,133.77 249.563,129.598 						"/>
						<polygon style="fill:#FFFFFF;" points="191.623,169.866 191.623,174.038 235.319,148.939 235.319,144.767 						"/>
					</g>
					<polygon style="fill:#FFFFFF;" points="191.623,112.013 191.623,119.148 233.913,94.747 233.913,87.612 					"/>
					<polygon style="fill:#FFFFFF;" points="191.623,122.808 191.623,127.299 219.717,111.161 219.717,106.669 					"/>
				</g>
			</g>
			<g>
				<g>
					<g>
						<polygon style="fill:#BA68C8;" points="195.599,178.471 196.911,180.761 199.831,179.559 197.727,183.15 198.232,186.202 
							195.621,186.131 193.012,189.216 193.498,185.591 191.38,184.439 194.297,182.27 						"/>
					</g>
					<g>
						<polygon style="fill:#BA68C8;" points="208.266,171.158 209.578,173.448 212.498,172.246 210.394,175.836 210.899,178.889 
							208.288,178.818 205.679,181.903 206.171,178.274 204.047,177.126 206.964,174.957 						"/>
					</g>
					<g>
						<polygon style="fill:#BA68C8;" points="220.933,163.845 222.245,166.135 225.165,164.933 223.061,168.523 223.572,171.572 
							220.954,171.505 218.345,174.589 218.838,170.961 216.714,169.812 219.631,167.643 						"/>
					</g>
					<g>
						<polygon style="fill:#BA68C8;" points="233.6,156.532 234.912,158.821 237.832,157.62 235.728,161.21 236.239,164.258 
							233.621,164.191 231.012,167.276 231.505,163.648 229.381,162.499 232.305,160.326 						"/>
					</g>
					<g>
						<polygon style="fill:#BA68C8;" points="246.267,149.218 247.578,151.508 250.499,150.306 248.395,153.896 248.906,156.945 
							246.288,156.878 243.679,159.963 244.172,156.334 242.048,155.186 244.972,153.013 						"/>
					</g>
				</g>
				<g>
					<g>
						<polygon style="fill:#BA68C8;" points="195.599,189.517 196.911,191.807 199.831,190.605 197.727,194.195 198.232,197.248 
							195.621,197.177 193.012,200.262 193.498,196.637 191.38,195.485 194.297,193.316 						"/>
					</g>
					<g>
						<polygon style="fill:#BA68C8;" points="208.266,182.204 209.578,184.494 212.498,183.292 210.394,186.882 210.899,189.935 
							208.288,189.864 205.679,192.948 206.171,189.32 204.047,188.171 206.964,186.003 						"/>
					</g>
					<g>
						<polygon style="fill:#BA68C8;" points="220.933,174.891 222.245,177.18 225.165,175.979 223.061,179.569 223.572,182.617 
							220.954,182.551 218.345,185.635 218.838,182.007 216.714,180.858 219.631,178.689 						"/>
					</g>
					<g>
						<polygon style="fill:#BA68C8;" points="233.6,167.578 234.912,169.867 237.832,168.665 235.728,172.256 236.239,175.304 
							233.621,175.237 231.012,178.322 231.505,174.693 229.381,173.545 232.305,171.372 						"/>
					</g>
					<g>
						<polygon style="fill:#BA68C8;" points="246.267,160.264 247.578,162.554 250.499,161.352 248.395,164.942 248.906,167.991 
							246.288,167.924 243.679,171.009 244.172,167.38 242.048,166.232 244.972,164.059 						"/>
					</g>
				</g>
				<g>
					<g>
						<polygon style="fill:#BA68C8;" points="195.599,200.563 196.911,202.853 199.831,201.651 197.727,205.241 198.232,208.294 
							195.621,208.223 193.012,211.308 193.498,207.683 191.38,206.531 194.297,204.362 						"/>
					</g>
					<g>
						<polygon style="fill:#BA68C8;" points="208.266,193.25 209.578,195.54 212.498,194.338 210.394,197.928 210.899,200.98 
							208.288,200.91 205.679,203.994 206.171,200.366 204.047,199.217 206.964,197.048 						"/>
					</g>
					<g>
						<polygon style="fill:#BA68C8;" points="220.933,185.937 222.245,188.226 225.165,187.025 223.061,190.615 223.572,193.663 
							220.954,193.597 218.345,196.681 218.838,193.053 216.714,191.904 219.631,189.735 						"/>
					</g>
					<g>
						<polygon style="fill:#BA68C8;" points="233.6,178.623 234.912,180.913 237.832,179.711 235.728,183.302 236.239,186.35 
							233.621,186.283 231.012,189.368 231.505,185.739 229.381,184.591 232.305,182.418 						"/>
					</g>
					<g>
						<polygon style="fill:#BA68C8;" points="246.267,171.31 247.578,173.6 250.499,172.398 248.395,175.988 248.906,179.037 
							246.288,178.97 243.679,182.055 244.172,178.426 242.048,177.278 244.972,175.105 						"/>
					</g>
				</g>
				<g style="opacity:0.8;">
					<g>
						<polygon style="fill:#FFFFFF;" points="195.599,178.471 196.911,180.761 199.831,179.559 197.727,183.15 198.232,186.202 
							195.621,186.131 193.012,189.216 193.498,185.591 191.38,184.439 194.297,182.27 						"/>
					</g>
					<g>
						<polygon style="fill:#FFFFFF;" points="208.266,171.158 209.578,173.448 212.498,172.246 210.394,175.836 210.899,178.889 
							208.288,178.818 205.679,181.903 206.171,178.274 204.047,177.126 206.964,174.957 						"/>
					</g>
					<g>
						<polygon style="fill:#FFFFFF;" points="220.933,163.845 222.245,166.135 225.165,164.933 223.061,168.523 223.572,171.572 
							220.954,171.505 218.345,174.589 218.838,170.961 216.714,169.812 219.631,167.643 						"/>
					</g>
				</g>
				<g style="opacity:0.8;">
					<g>
						<polygon style="fill:#FFFFFF;" points="195.599,189.517 196.911,191.807 199.831,190.605 197.727,194.195 198.232,197.248 
							195.621,197.177 193.012,200.262 193.498,196.637 191.38,195.485 194.297,193.316 						"/>
					</g>
					<g>
						<polygon style="fill:#FFFFFF;" points="208.266,182.204 209.578,184.494 212.498,183.292 210.394,186.882 210.899,189.935 
							208.288,189.864 205.679,192.948 206.171,189.32 204.047,188.171 206.964,186.003 						"/>
					</g>
					<g>
						<polygon style="fill:#FFFFFF;" points="220.933,174.891 222.245,177.18 225.165,175.979 223.061,179.569 223.572,182.617 
							220.954,182.551 218.345,185.635 218.838,182.007 216.714,180.858 219.631,178.689 						"/>
					</g>
					<g>
						<polygon style="fill:#FFFFFF;" points="233.6,167.578 234.912,169.867 237.832,168.665 235.728,172.256 236.239,175.304 
							233.621,175.237 231.012,178.322 231.505,174.693 229.381,173.545 232.305,171.372 						"/>
					</g>
				</g>
				<g style="opacity:0.8;">
					<g>
						<polygon style="fill:#FFFFFF;" points="195.599,200.563 196.911,202.853 199.831,201.651 197.727,205.241 198.232,208.294 
							195.621,208.223 193.012,211.308 193.498,207.683 191.38,206.531 194.297,204.362 						"/>
					</g>
					<g>
						<polygon style="fill:#FFFFFF;" points="208.266,193.25 209.578,195.54 212.498,194.338 210.394,197.928 210.899,200.98 
							208.288,200.91 205.679,203.994 206.171,200.366 204.047,199.217 206.964,197.048 						"/>
					</g>
					<g>
						<polygon style="fill:#FFFFFF;" points="220.933,185.937 222.245,188.226 225.165,187.025 223.061,190.615 223.572,193.663 
							220.954,193.597 218.345,196.681 218.838,193.053 216.714,191.904 219.631,189.735 						"/>
					</g>
				</g>
			</g>
			<g>
				<g>
					<polygon style="fill:#BA68C8;" points="142.328,246.774 127.389,255.437 127.389,272.73 139.733,265.586 142.328,260.217 					
						"/>
					<polygon style="opacity:0.1;" points="142.328,246.774 127.389,255.437 127.389,272.73 139.733,265.586 142.328,260.217 					
						"/>
					<polygon style="fill:#BA68C8;" points="139.733,265.586 142.328,260.217 139.733,261.719 					"/>
					<polygon style="opacity:0.3;" points="139.733,265.586 142.328,260.217 139.733,261.719 					"/>
				</g>
				<g>
					<polygon style="fill:#BA68C8;" points="145.379,245.034 145.379,248.683 186.165,225.16 186.165,221.512 					"/>
					<polygon style="fill:#BA68C8;" points="145.379,251.291 145.379,254.939 186.165,231.451 186.165,227.803 					"/>
					<polygon style="fill:#BA68C8;" points="145.379,257.332 145.379,260.981 173.708,244.717 173.708,241.069 					"/>
				</g>
				<g style="opacity:0.6;">
					<polygon style="fill:#FFFFFF;" points="145.379,245.034 145.379,248.683 186.165,225.16 186.165,221.512 					"/>
					<polygon style="fill:#FFFFFF;" points="145.379,251.291 145.379,254.939 186.165,231.451 186.165,227.803 					"/>
					<polygon style="fill:#FFFFFF;" points="145.379,257.332 145.379,260.981 173.708,244.717 173.708,241.069 					"/>
				</g>
			</g>
			<g>
				<g>
					<polygon style="fill:#BA68C8;" points="142.328,269.98 127.389,278.643 127.389,295.936 139.733,288.791 142.328,283.423 					
						"/>
					<polygon style="opacity:0.1;" points="142.328,269.98 127.389,278.643 127.389,295.936 139.733,288.791 142.328,283.423 					
						"/>
					<polygon style="fill:#BA68C8;" points="139.733,288.791 142.328,283.423 139.733,284.925 					"/>
					<polygon style="opacity:0.3;" points="139.733,288.791 142.328,283.423 139.733,284.925 					"/>
				</g>
				<g>
					<polygon style="fill:#BA68C8;" points="145.379,268.24 145.379,271.888 186.607,248.122 186.607,244.473 					"/>
					<polygon style="fill:#BA68C8;" points="145.379,274.497 145.379,278.145 186.607,254.412 186.607,250.764 					"/>
					<polygon style="fill:#BA68C8;" points="145.379,280.538 145.379,284.187 154.313,279.161 154.313,275.513 					"/>
				</g>
				<g style="opacity:0.6;">
					<polygon style="fill:#FFFFFF;" points="145.379,268.24 145.379,271.888 186.607,248.122 186.607,244.473 					"/>
					<polygon style="fill:#FFFFFF;" points="145.379,274.497 145.379,278.145 186.607,254.412 186.607,250.764 					"/>
					<polygon style="fill:#FFFFFF;" points="145.379,280.538 145.379,284.187 154.313,279.161 154.313,275.513 					"/>
				</g>
			</g>
			<g>
				<g>
					<polygon style="fill:#BA68C8;" points="142.328,293.186 127.389,301.848 127.389,319.142 139.733,311.997 142.328,306.629 
											"/>
					<polygon style="opacity:0.1;" points="142.328,293.186 127.389,301.848 127.389,319.142 139.733,311.997 142.328,306.629 					
						"/>
					<polygon style="fill:#BA68C8;" points="139.733,311.997 142.328,306.629 139.733,308.13 					"/>
					<polygon style="opacity:0.3;" points="139.733,311.997 142.328,306.629 139.733,308.13 					"/>
				</g>
				<g>
					<polygon style="fill:#BA68C8;" points="145.379,291.446 145.379,295.094 186.999,270.926 186.999,267.278 					"/>
					<polygon style="fill:#BA68C8;" points="145.379,297.703 145.379,301.351 186.999,277.217 186.999,273.569 					"/>
					<polygon style="fill:#BA68C8;" points="145.379,303.744 145.379,307.392 186.999,283.309 186.999,279.66 					"/>
				</g>
				<g style="opacity:0.6;">
					<polygon style="fill:#FFFFFF;" points="145.379,291.446 145.379,295.094 186.999,270.926 186.999,267.278 					"/>
					<polygon style="fill:#FFFFFF;" points="145.379,297.703 145.379,301.351 186.999,277.217 186.999,273.569 					"/>
					<polygon style="fill:#FFFFFF;" points="145.379,303.744 145.379,307.392 186.999,283.309 186.999,279.66 					"/>
				</g>
			</g>
			<g>
				<path style="fill:#BA68C8;" d="M248.865,252.97l-55.546,32.054c-0.726,0.419-1.633-0.105-1.633-0.943v-62.674
					c0-1.167,0.623-2.245,1.633-2.829l55.546-32.054c0.726-0.419,1.633,0.105,1.633,0.943v62.674
					C250.499,251.308,249.876,252.386,248.865,252.97z"/>
				<g>
					<polygon style="fill:#BA68C8;" points="211.402,213.484 196.463,222.147 196.463,239.44 208.807,232.296 211.402,226.927 					
						"/>
					<polygon style="opacity:0.3;" points="211.402,213.484 196.463,222.147 196.463,239.44 208.807,232.296 211.402,226.927 					
						"/>
					<polygon style="fill:#BA68C8;" points="208.807,232.296 211.402,226.927 208.807,228.429 					"/>
					<polygon style="opacity:0.5;" points="208.807,232.296 211.402,226.927 208.807,228.429 					"/>
				</g>
				<g>
					<polygon style="fill:#BA68C8;" points="214.926,213.85 214.926,216.276 247.248,197.625 247.248,195.199 					"/>
					<polygon style="fill:#BA68C8;" points="214.926,220.437 247.248,201.809 247.248,199.382 214.926,218.011 					"/>
					<polygon style="fill:#BA68C8;" points="214.926,224.734 247.248,206.084 247.248,203.657 214.926,222.308 					"/>
					<polygon style="fill:#BA68C8;" points="232.575,216.276 214.926,226.469 214.926,228.895 232.575,218.702 					"/>
					<polygon style="fill:#BA68C8;" points="196.463,245.6 247.248,216.404 247.248,213.978 196.463,243.174 					"/>
					<polygon style="fill:#BA68C8;" points="234.14,225.714 196.463,247.335 196.463,249.761 234.14,228.14 					"/>
					<polygon style="fill:#BA68C8;" points="196.463,265.247 247.248,236.051 247.248,233.625 196.463,262.821 					"/>
					<polygon style="fill:#BA68C8;" points="224.683,250.788 196.463,266.982 196.463,269.408 224.683,253.214 					"/>
					<polygon style="fill:#BA68C8;" points="196.463,273.705 247.248,244.509 247.248,242.083 196.463,271.279 					"/>
					<polygon style="fill:#BA68C8;" points="196.463,277.866 221.855,263.279 221.855,260.853 196.463,275.44 					"/>
					<polygon style="fill:#BA68C8;" points="225.363,261.264 233.323,256.691 233.323,254.265 225.363,258.838 					"/>
					<polygon style="fill:#BA68C8;" points="196.463,254.058 247.248,224.862 247.248,222.436 196.463,251.632 					"/>
					<polygon style="fill:#BA68C8;" points="214.183,245.613 196.463,255.793 196.463,258.219 214.183,248.04 					"/>
				</g>
				<g style="opacity:0.3;">
					<polygon style="fill:#FFFFFF;" points="214.926,213.85 214.926,216.276 247.248,197.625 247.248,195.199 					"/>
					<polygon style="fill:#FFFFFF;" points="214.926,220.437 247.248,201.809 247.248,199.382 214.926,218.011 					"/>
					<polygon style="fill:#FFFFFF;" points="214.926,224.734 247.248,206.084 247.248,203.657 214.926,222.308 					"/>
					<polygon style="fill:#FFFFFF;" points="232.575,216.276 214.926,226.469 214.926,228.895 232.575,218.702 					"/>
					<polygon style="fill:#FFFFFF;" points="196.463,245.6 247.248,216.404 247.248,213.978 196.463,243.174 					"/>
					<polygon style="fill:#FFFFFF;" points="234.14,225.714 196.463,247.335 196.463,249.761 234.14,228.14 					"/>
					<polygon style="fill:#FFFFFF;" points="196.463,265.247 247.248,236.051 247.248,233.625 196.463,262.821 					"/>
					<polygon style="fill:#FFFFFF;" points="224.683,250.788 196.463,266.982 196.463,269.408 224.683,253.214 					"/>
					<polygon style="fill:#FFFFFF;" points="196.463,273.705 247.248,244.509 247.248,242.083 196.463,271.279 					"/>
					<polygon style="fill:#FFFFFF;" points="196.463,277.866 221.855,263.279 221.855,260.853 196.463,275.44 					"/>
					<polygon style="fill:#FFFFFF;" points="225.363,261.264 233.323,256.691 233.323,254.265 225.363,258.838 					"/>
					<polygon style="fill:#FFFFFF;" points="196.463,254.058 247.248,224.862 247.248,222.436 196.463,251.632 					"/>
					<polygon style="fill:#FFFFFF;" points="214.183,245.613 196.463,255.793 196.463,258.219 214.183,248.04 					"/>
				</g>
			</g>
		</g>
	</g>
</g>
<g id="Character">
	<g>
		<g>
			<path style="fill:#37474F;" d="M266.564,404.175c2.157,2.264,5.424,3.223,8.55,3.143c3.126-0.08,6.152-1.092,9.045-2.281
				c2.892-1.189,6.524-4.518,9.65-4.455c2.888,0.058,6.299-0.315,9.147-0.626c0.278-6.312-1.3-12.388-1.3-12.388l-14.6-0.386
				c-3.941,5.398-11.606,9.89-17.405,11.574c-1.862,0.541-3.239,2.053-3.602,3.839c0.006,0.031,0.004,0.061,0.011,0.092
				C266.265,403.623,266.564,404.175,266.564,404.175z"/>
			<path style="fill:#263238;" d="M293.809,400.582c-3.126-0.063-6.758,3.266-9.65,4.455c-2.892,1.189-5.919,2.201-9.045,2.281
				c-3.126,0.08-6.393-0.88-8.55-3.143c0,0-0.299-0.552-0.505-1.487c-0.007-0.031-0.005-0.061-0.011-0.092
				c-0.127,0.625-0.135,1.282,0.011,1.945c0.206,0.935,0.505,1.487,0.505,1.487c2.157,2.264,5.424,3.223,8.55,3.143
				c3.126-0.08,6.152-1.092,9.045-2.281c2.892-1.189,6.524-4.518,9.65-4.455c3.216,0.064,5.992-0.197,9.004-0.52
				c0.072-0.651,0.114-1.306,0.143-1.958C300.108,400.267,296.697,400.64,293.809,400.582z"/>
		</g>
		<g>
			<path style="fill:#263238;" d="M338.79,412.306c-0.013,1.599-0.125,3.192-0.47,4.751c-0.603,2.729-2.009,5.393-4.344,6.929
				c-2.012,1.324-4.498,1.691-6.902,1.837c-2.128,0.129-4.319,0.1-6.315-0.652c-1.515-0.571-2.905-1.632-3.695-3.018
				c0.006,0.027,0.008,0.055,0.014,0.082c0.475,2.078,2.258,3.675,4.254,4.427c1.995,0.752,4.186,0.781,6.314,0.652
				c2.405-0.145,4.89-0.513,6.902-1.837c2.335-1.536,3.74-4.199,4.344-6.929c0.345-1.56,0.457-3.152,0.47-4.752
				c0.018-2.21,0.936-4.296,2.548-5.808c0.392-0.368,0.768-0.749,1.111-1.144c0.496-0.57,0.736-1.318,0.679-2.072
				c-0.022-0.296-0.054-0.585-0.091-0.869c-0.574,0.672-1.93,2.274-2.271,2.594C339.726,408.009,338.808,410.096,338.79,412.306z"/>
			<path style="fill:#37474F;" d="M326.807,395.753c0.605,3.225,0.017,6.593-1.219,9.632c-1.237,3.039-3.098,5.783-5.098,8.384
				c-0.961,1.249-1.964,2.483-2.668,3.893c-0.692,1.384-1.077,2.98-0.757,4.492c0.791,1.387,2.18,2.447,3.695,3.018
				c1.995,0.752,4.186,0.78,6.315,0.652c2.404-0.146,4.89-0.513,6.902-1.837c2.335-1.536,3.74-4.2,4.344-6.929
				c0.345-1.559,0.458-3.152,0.47-4.751c0.017-2.21,0.936-4.297,2.547-5.808c0.341-0.32,1.697-1.922,2.271-2.594
				c-0.515-3.934-2.344-6.721-2.344-6.721L326.807,395.753z"/>
		</g>
		<g>
			<path style="fill:#455A64;" d="M285.15,259.183c0,0-3.877,48.498-3.539,61.987c0.337,13.49,1.759,66.805,1.759,66.805
				c7.932,4.416,19.393,1.124,19.393,1.124c0.927-42.556,5.141-51.71,2.275-67.287c2.023-11.563,4.811-38.508,4.811-38.508
				c3.954,32.406,6.819,49.107,6.819,49.107l9.439,64.878c7.753,3.854,17.529,0,17.529,0c0-36.98,0.843-52.624-3.202-77.034
				c-0.216-37.578-3.989-64.498-3.989-64.498L285.15,259.183z"/>
			<path style="opacity:0.2;" d="M294.523,271.708c2.706,6.317,11.189,6.317,11.189,6.317l1.517,7.183l-0.565,25.544
				c1.63-12.425,3.184-27.449,3.184-27.449l-1.046-7.688C301.667,275.884,296.48,273.206,294.523,271.708z"/>
		</g>
		<path style="fill:#455A64;" d="M298.088,183.967c-13.248,0-15.42,5.153-18.763,13.694s-5.947,23.788-5.947,23.788l12.815-2.758
			l5.025-28.852L298.088,183.967z"/>
		<g>
			<path style="fill:#37474F;" d="M286.193,216.626c-3.334-0.227-6.722,0.388-9.763,1.773c-1.182,0.538-2.343,1.218-3.126,2.253
				c-0.783,1.036-1.115,2.493-0.544,3.659c-1.221,2.235-1.107,5.565-0.857,8.313c0.048,0.526,0.115,1.061,0.338,1.54
				c0.223,0.479,0.627,0.9,1.142,1.019l12.81-11.521V216.626z"/>
			<path style="opacity:0.2;" d="M281.802,219.467c-4.549-0.36-7.846,2.263-9.322,3.604c0.006,0.428,0.088,0.851,0.279,1.241
				C273.808,222.72,278.282,219.833,281.802,219.467z"/>
			<path style="opacity:0.2;" d="M276.826,223.807c2.829-1.634,6.1-2.483,9.367-2.46v-1.055
				C282.817,220.286,279.422,221.649,276.826,223.807z"/>
		</g>
		<path style="fill:#FFA8A7;" d="M320.214,175.126c0-0.001,0.001-0.002,0.001-0.003c-0.004,0.002-0.008,0.004-0.012,0.006
			L320.214,175.126z"/>
		<path style="fill:#BA68C8;" d="M334.813,184.842l-6.225-0.662l-30.5-0.213c-10.685,0-12.055,13.153-12.672,24.79
			c-0.617,11.637,1.358,35.057-1.292,50.695l12.722,8.216l3.578-3.843l5.698,5.301c19.348,0,30.745-10.734,32.202-12.589
			L334.813,184.842z"/>
		<path style="opacity:0.2;fill:#FFFFFF;" d="M334.813,184.842l-6.225-0.662l-30.5-0.213c-10.685,0-12.055,13.153-12.672,24.79
			c-0.617,11.637,1.358,35.057-1.292,50.695l12.722,8.216l3.578-3.843l5.698,5.301c19.348,0,30.745-10.734,32.202-12.589
			L334.813,184.842z"/>
		<path style="fill:#455A64;" d="M303.074,188.024c-2.849,9.076-1.06,21.732,0,27.43c7.223-9.939,13.981-19.902,16.101-23.799
			l-10.072-4.891L303.074,188.024z"/>
		<path style="opacity:0.2;" d="M302.113,216.134l-3.281,4.398c-0.898,1.204-1.341,2.686-1.251,4.185l2.196,36.59l-3.78-36.3
			c-0.216-2.072,0.597-4.118,2.175-5.478L302.113,216.134z"/>
		<path style="fill:#455A64;" d="M334.813,184.842l4.137,0.661c4.998,0.798,8.934,4.631,9.965,9.586
			c3.821,18.354,2.694,35.108,2.694,35.108l-18.884-8.697C330.737,206.741,326.861,194.549,334.813,184.842z"/>
		<g>
			<path style="fill:#37474F;" d="M332.096,222.066c0-0.744,0.613-1.336,1.356-1.326c8.549,0.112,16.853,4.178,19.118,8.961
				c0.928,1.988,0,4.622,0,4.622c1.524,1.988,0.729,2.982-0.066,4.423c-0.795,1.441,0.397,4.671-2.187,4.522l0.606-1.223
				c-5.111-9.914-17.999-13.984-17.999-13.984l-0.077-1.641c-0.014-0.301-0.149-0.584-0.375-0.784l0,0
				c-0.239-0.212-0.376-0.516-0.376-0.836V222.066z"/>
			<path style="opacity:0.2;" d="M341.767,226.146c4.051,1.551,8.533,5.301,10.803,8.176c0,0,0.23-0.653,0.346-1.553
				C351.503,230.994,348.427,227.741,341.767,226.146z"/>
			<path style="opacity:0.2;" d="M332.152,225.13c0.06,0.193,0.166,0.37,0.32,0.506c0.225,0.2,0.361,0.482,0.375,0.784l0.006,0.132
				c5.927,0.895,11.55,3.734,15.773,7.991C344.677,228.815,335.999,225.883,332.152,225.13z"/>
		</g>
		<g>
			<g>
				<path style="fill:#9C5C5C;" d="M332.924,228.061l-0.071-1.509c-14.486-5.016-40.02-4.043-47.478-4.099
					c-5.505-0.056-13.193,8.785-12.624,12.265c0.569,3.48,0.627,6.468,7.349,7.043c4.753,0.301,13.905-1.523,13.905-1.523
					c25.224,7.757,49.56,6.378,53.337,5.688c1.794-0.258,2.976-2.659,2.976-2.659l0.606-1.223
					C345.813,232.13,332.924,228.061,332.924,228.061z"/>
			</g>
			<path style="fill:#803E3E;" d="M342.5,235.239c-0.439-1.441-1.11-2.594-1.787-3.482c-4.165-2.552-7.788-3.697-7.788-3.697
				l-0.071-1.509c-0.309-0.107-0.629-0.207-0.948-0.309l0.191,1.864c-4.112,0.28-28.271,10.167-38.091,12.131
				c1.922,0.591,3.836,1.123,5.739,1.612c10.977-3.812,26.116-11.313,33.103-12.385C337.716,230.714,340.216,232.007,342.5,235.239z
				"/>
		</g>
		<path style="fill:#263238;" d="M330.428,157.702c1.511-5.064,1.182-10.879-1.843-15.213c-1.934-2.77-4.849-4.776-8.027-5.923
			c-3.178-1.146-6.611-1.47-9.985-1.292c-2.658,0.14-5.351,0.603-7.7,1.854c-2.87,1.528-5.092,4.231-6.035,7.343
			c-0.944,3.112-0.598,6.593,0.94,9.458c1.213,2.261,3.093,4.086,5.042,5.754c3.878,3.318,8.154,6.169,12.705,8.479
			c1.138,0.577,2.293,1.121,3.463,1.629c0.796,0.346,2.304,1.323,3.192,1.146c0.9-0.179,1.833-1.848,2.37-2.532
			c0.776-0.986,1.516-2.001,2.205-3.05C328.313,162.986,329.615,160.428,330.428,157.702z"/>
		<g>
			<g>
				<path style="fill:#BA68C8;" d="M307.285,196.362l-2.488-0.592c0,0-1.839,4.672-3.034,9.718c0.307,4.018,0.87,7.597,1.311,9.966
					c1.417-1.95,2.814-3.899,4.164-5.805C306.959,206.391,306.674,201,307.285,196.362z"/>
				<path style="opacity:0.2;" d="M307.229,196.887c0.02-0.174,0.033-0.353,0.056-0.525l-2.488-0.592c0,0-0.054,0.136-0.141,0.368
					c0.406,0.355,0.884,0.63,1.411,0.743C306.449,196.963,306.842,196.948,307.229,196.887z"/>
			</g>
			<g>
				<path style="fill:#BA68C8;" d="M308.618,189.845l1.96-1.26l4.565,2.488c-2.002,1.833-5.384,2.132-5.384,2.132L308.618,189.845z"
					/>
				<path style="fill:#BA68C8;" d="M305.6,189.361l-0.597-1.337l-2.301,1.441c0.449,1.497,1.496,2.19,1.496,2.19L305.6,189.361z"/>
				<path style="opacity:0.2;" d="M308.618,189.845l1.96-1.26l4.565,2.488c-2.002,1.833-5.384,2.132-5.384,2.132L308.618,189.845z"
					/>
				<path style="opacity:0.2;" d="M305.6,189.361l-0.597-1.337l-2.301,1.441c0.449,1.497,1.496,2.19,1.496,2.19L305.6,189.361z"/>
				<path style="fill:#BA68C8;" d="M309.758,193.206c-0.194-1.157-0.581-2.329-1.14-3.361c-1.006-0.161-2.012-0.323-3.019-0.484
					c-0.548,0.699-1.031,1.487-1.403,2.294c-0.149,2.15,0.6,4.115,0.6,4.115c1.122,0.636,2.488,0.592,2.488,0.592
					C309.081,195.246,309.758,193.206,309.758,193.206z"/>
			</g>
		</g>
		<g>
			<path style="fill:#9C5C5C;" d="M322.533,166.485v13.817c-2.751,3.786-14.305,8.596-14.974,8.482
				c-0.841-0.143-0.015-7.588-0.015-8.233l0.013-5.598c2.244-0.34,4.447-0.738,6.429-1.153
				C317.933,172.976,321.135,170.195,322.533,166.485z"/>
			<path style="fill:#803E3E;" d="M312.587,177.078c-1.643,0.455-3.331,0.704-5.028,0.892v-3.016
				c2.244-0.34,4.447-0.738,6.429-1.153c3.709-0.776,6.742-3.292,8.255-6.672c-0.393,2.315-1.399,4.532-3.014,6.231
				C317.459,175.222,315.062,176.393,312.587,177.078z"/>
		</g>
		<g>
			<path style="fill:#9C5C5C;" d="M298.927,144.738c2.064,2.118,5.45,3.506,8.406,3.539c2.956,0.033,5.819-0.943,8.67-1.728
				c0.246,1.374,0.944,2.663,1.96,3.619c1.016,0.957,2.648,1.595,4.034,1.758c-0.408,2.665-0.398,5.395,0.032,8.057
				c0.091,0.565,0.471,1.078,1.02,1.239c0.96,0.28,1.597-0.705,2.065-1.501c0.532-0.906,1.19-1.77,2.083-2.324
				c0.893-0.554,2.056-0.753,3.008-0.308c0.778,0.364,1.329,1.116,1.587,1.935c0.257,0.819,0.247,1.701,0.125,2.551
				c-0.204,1.417-0.729,2.81-1.656,3.901c-0.926,1.091-2.279,1.854-3.709,1.912c-1.43,0.058-2.854-0.517-3.565-1.76l-0.063,0.26
				c-0.104,0.427-0.237,0.841-0.39,1.245c-1.274,3.38-4.192,5.914-7.787,6.667c-1.806,0.378-3.813,0.74-5.858,1.05
				c-1.005,0.152-2.017,0.296-3.024,0.415c-3.844,0.456-7.382-2.15-8.056-5.962C296.43,161.52,295.972,152.451,298.927,144.738z"/>
			<path style="fill:#37474F;" d="M293.478,153.337v1.846l0.455,0.259c0.327,1.14,0.308,2.441,0.42,3.629
				c0.113,1.189,0.423,2.441,1.253,3.215c0.903,0.842,2.19,0.918,3.375,0.935c0.954,0.013,1.944,0.007,2.81-0.434
				c1.021-0.52,1.739-1.592,2.141-2.746c0.402-1.154,0.336-1.822,0.839-3.211c0.242-0.666,0.896-0.644,0.896-0.644
				s0.7-0.022,0.958,0.645c0.538,1.389,0.467,2.057,0.897,3.211c0.43,1.154,1.197,2.226,2.289,2.746
				c0.925,0.441,1.983,0.448,3.004,0.434c1.267-0.017,2.642-0.093,3.608-0.935c0.887-0.774,1.219-2.027,1.339-3.215
				c0.121-1.189,0.1-2.489,0.449-3.629l0.486-0.259v-1.846c-4.059-1.661-8.445-1.186-12.123,1.235h-0.907h-0.849
				C301.379,152.15,297.275,151.676,293.478,153.337z M307.534,155.149c1.905-1.178,4.035-1.799,6.182-1.799
				c1.036,0,2.066,0.142,3.075,0.423c0.078,1.399,0.127,3.335,0.069,4.217c-0.021,0.319-0.042,0.637-0.074,0.945
				c-0.125,1.243-0.461,2.086-1.026,2.578c-0.726,0.633-1.871,0.701-2.982,0.715l-0.396,0.003c-0.74,0-1.512-0.042-2.155-0.348
				c-1.045-0.497-1.584-1.599-1.812-2.211c-0.449-1.207-0.78-2.513-0.884-3.492l-0.07-0.66
				C307.461,155.52,307.431,155.213,307.534,155.149z M295.263,153.773c0.944-0.281,1.908-0.423,2.877-0.423
				c2.009,0,4.001,0.621,5.784,1.799c0.096,0.064,0.068,0.371,0.068,0.371l-0.065,0.66c-0.097,0.979-0.406,2.284-0.827,3.492
				c-0.213,0.612-0.717,1.713-1.695,2.211c-0.601,0.306-1.324,0.348-2.016,0.348l-0.37-0.003c-1.039-0.014-2.111-0.082-2.79-0.715
				c-0.529-0.492-0.843-1.336-0.96-2.578c-0.03-0.309-0.049-0.626-0.069-0.945C295.144,157.108,295.19,155.171,295.263,153.773z"/>
			<path style="fill:#37474F;" d="M318.699,153.337l9.869,3.548c-0.953,0.228-1.524,0.548-1.932,0.905
				c-0.106,0.093-7.937-2.607-7.937-2.607V153.337z"/>
			<g>
				<polygon style="fill:#9C5C5C;" points="305.711,156.336 300.733,162.366 305.301,163.981 				"/>
				<polygon style="fill:#803E3E;" points="305.711,156.336 300.733,162.366 305.301,163.981 				"/>
				<path style="fill:#263238;" d="M312.744,157.091c0.005,0.755-0.604,1.372-1.359,1.376c-0.755,0.005-1.371-0.604-1.376-1.359
					c-0.005-0.755,0.604-1.372,1.359-1.376C312.124,155.727,312.74,156.335,312.744,157.091z"/>
				<path style="fill:#263238;" d="M301.26,156.72c0.005,0.755-0.604,1.371-1.359,1.376c-0.755,0.005-1.371-0.604-1.376-1.359
					c-0.005-0.755,0.604-1.371,1.359-1.376C300.639,155.357,301.256,155.965,301.26,156.72z"/>
				<path style="fill:#263238;" d="M301.983,150.651c-1.221,0.138-2.442,0.276-3.663,0.414c0.076-0.775,0.772-1.462,1.536-1.611
					C300.621,149.305,301.621,149.961,301.983,150.651z"/>
				<path style="fill:#263238;" d="M310.009,150.973c1.228-0.011,2.457-0.022,3.685-0.033c-0.169-0.761-0.943-1.357-1.72-1.413
					C311.197,149.472,310.285,150.245,310.009,150.973z"/>
				<path style="fill:#9C5C5C;" d="M310.559,166.4c-1.754,0.539-3.508,1.079-5.262,1.618c0.54,1.222,2.258,1.984,3.545,1.631
					C310.131,169.296,310.719,167.726,310.559,166.4z"/>
				<path style="fill:#5E2828;" d="M310.559,166.4c-1.754,0.539-3.508,1.079-5.262,1.618c0.54,1.222,2.258,1.984,3.545,1.631
					C310.131,169.296,310.719,167.726,310.559,166.4z"/>
				<path style="fill:#9C5C5C;" d="M307.119,169.546c0.572,0.195,1.184,0.252,1.723,0.104c1.011-0.277,1.584-1.305,1.709-2.375
					c-0.695-0.105-1.426,0.014-2.032,0.371C307.821,168.056,307.322,168.762,307.119,169.546z"/>
				<path style="fill:#803E3E;" d="M307.119,169.546c0.572,0.195,1.184,0.252,1.723,0.104c1.011-0.277,1.584-1.305,1.709-2.375
					c-0.695-0.105-1.426,0.014-2.032,0.371C307.821,168.056,307.322,168.762,307.119,169.546z"/>
			</g>
		</g>
		<path style="fill:#37474F;" d="M307.56,188.785c4.79-0.083,7.716,3.732,12.096,5.036l8.932-9.641l-3.462-5.147
			c-0.691-1.027-1.589-1.897-2.637-2.555l0,0l-0.039,1.864c-0.023,1.107-0.621,2.123-1.578,2.68L307.56,188.785z"/>
		<path style="fill:#37474F;" d="M307.56,188.785c-2.664-0.828-6.639,2.501-6.639,2.501c1.391-7.703,5.596-10.734,6.625-10.734
			L307.56,188.785z"/>
	</g>
</g>
</svg>
