<?xml version="1.0" encoding="utf-8"?>
<!-- Generator: Adobe Illustrator 27.5.0, SVG Export Plug-In . SVG Version: 6.00 Build 0)  -->
<svg version="1.1" xmlns="http://www.w3.org/2000/svg" xmlns:xlink="http://www.w3.org/1999/xlink" x="0px" y="0px"
	 viewBox="0 0 3710 3710" style="enable-background:new 0 0 3710 3710;" xml:space="preserve">
<g id="Background">
	<g>
		<g>
			<rect style="fill:#FFFFFF;" width="3710" height="3710"/>
		</g>
	</g>
</g>
<g id="Illustration">
	<g>
		<linearGradient id="SVGID_1_" gradientUnits="userSpaceOnUse" x1="3361.864" y1="3518.4421" x2="1369.6935" y2="1368.1627">
			<stop  offset="0" style="stop-color:#DAE3FE"/>
			<stop  offset="1" style="stop-color:#E9EFFD"/>
		</linearGradient>
		<path style="fill:url(#SVGID_1_);" d="M3084.242,2293.079c-273.739,639.832-996.321,914.655-1562.475,867.797
			c-154.583-12.794-465.608-38.536-708.458-268.192c-466.378-441.04-394.551-1362.934,51.906-1905.695
			c57.495-69.896,455.463-538.195,1075.622-531.927c454.047,4.59,772.738,261.075,811.49,293.028
			c48.954,40.365,156.926,136.286,254.235,288.459C3235.203,1394.101,3255.301,1893.247,3084.242,2293.079z"/>
		<g>
			
				<linearGradient id="SVGID_00000021115609474220495300000005068950216768518584_" gradientUnits="userSpaceOnUse" x1="1916.8329" y1="2550.8044" x2="1930.4474" y2="3517.4644">
				<stop  offset="0" style="stop-color:#09005D"/>
				<stop  offset="1" style="stop-color:#1A0F91"/>
			</linearGradient>
			<polygon style="fill:url(#SVGID_00000021115609474220495300000005068950216768518584_);" points="1631.99,2639.6 
				1571.167,3059.338 2276.823,3059.338 2184.911,2639.6 			"/>
			
				<linearGradient id="SVGID_00000109021435291317117270000002809220456963746474_" gradientUnits="userSpaceOnUse" x1="2048.3672" y1="305.9399" x2="1803.2966" y2="2361.8042">
				<stop  offset="0" style="stop-color:#09005D"/>
				<stop  offset="1" style="stop-color:#1A0F91"/>
			</linearGradient>
			<path style="fill:url(#SVGID_00000109021435291317117270000002809220456963746474_);" d="M446.612,1295.629v1249.315
				c0,102.772,81.897,186.816,184.636,189.466c456.311,11.766,2052.265,40.298,2486.642,33.895
				c74.658-1.101,135.138-60.845,137.292-135.48c8.376-290.232,21.979-988.145-28.363-1312.159
				c-10.602-68.234-68.197-119.258-137.214-121.465c-382.331-12.231-2074.147-51.068-2508.321-41.318
				C506.404,1159.563,446.612,1220.73,446.612,1295.629z"/>
			
				<linearGradient id="SVGID_00000101085151618633272400000011915368853678932625_" gradientUnits="userSpaceOnUse" x1="3238.6672" y1="2677.1809" x2="617.7883" y2="1240.8049">
				<stop  offset="0" style="stop-color:#FE7062"/>
				<stop  offset="1" style="stop-color:#FF928E"/>
			</linearGradient>
			<path style="fill:url(#SVGID_00000101085151618633272400000011915368853678932625_);" d="M525.003,1289.547v1186.935
				c0,60.004,48.167,108.897,108.165,109.794l2422.231,29.926c59.483,0.889,108.241-46.967,108.463-106.457l4.052-1176.33
				c0.159-42.536-33.73-77.389-76.254-78.424l-2479.916-50.101C564.184,1203.733,525.003,1241.973,525.003,1289.547z"/>
			<path style="fill:#91B3FA;" d="M3182.099,2664.848c-0.02,0-0.039,0-0.059,0l-2657.094-45.273
				c-1.855-0.033-3.332-1.561-3.301-3.414c0.031-1.86,1.581-3.273,3.416-3.303l2657.094,45.273c1.855,0.033,3.332,1.561,3.301,3.414
				C3185.425,2663.382,3183.926,2664.848,3182.099,2664.848z"/>
			<path style="fill:#91B3FA;" d="M1879.761,2720.141c-17.095,0-31.004-13.91-31.004-31.005s13.909-31.005,31.004-31.005
				c17.097,0,31.005,13.91,31.005,31.005S1896.858,2720.141,1879.761,2720.141z M1879.761,2664.848
				c-13.392,0-24.286,10.896-24.286,24.288s10.894,24.288,24.286,24.288c13.392,0,24.288-10.896,24.288-24.288
				S1893.153,2664.848,1879.761,2664.848z"/>
			
				<linearGradient id="SVGID_00000141451599235026587400000017503452669870102455_" gradientUnits="userSpaceOnUse" x1="1865.4623" y1="2541.313" x2="1926.7297" y2="3317.366">
				<stop  offset="0" style="stop-color:#09005D"/>
				<stop  offset="1" style="stop-color:#1A0F91"/>
			</linearGradient>
			<path style="fill:url(#SVGID_00000141451599235026587400000017503452669870102455_);" d="M2428.822,3170.945H1396.045
				c-28.057,0-49.127-19.974-43.702-41.428l13.252-52.411c3.985-15.761,21.325-27.333,41.921-27.976l995.633-31.068
				c21.517-0.671,40.569,10.75,45.257,27.131l23.89,83.478C2478.503,3150.359,2457.332,3170.945,2428.822,3170.945z"/>
			<path style="fill:#91B3FA;" d="M1952.007,3063.32c-1.832,0-3.329-1.473-3.357-3.31c-0.026-1.856,1.455-3.382,3.309-3.408
				l42.664-0.623c1.783,0.01,3.38,1.456,3.408,3.31c0.026,1.856-1.455,3.382-3.31,3.408l-42.664,0.623
				C1952.042,3063.32,1952.025,3063.32,1952.007,3063.32z"/>
			<path style="fill:#91B3FA;" d="M1390.58,3142.042c-0.177,0-0.356-0.013-0.535-0.043c-1.832-0.292-3.08-2.014-2.786-3.844
				l6.088-38.12c3.268-20.48,20.693-35.564,41.432-35.87l452.518-6.619c0.016,0,0.035,0,0.051,0c1.832,0,3.329,1.473,3.357,3.309
				c0.026,1.857-1.455,3.382-3.31,3.408l-452.518,6.619c-17.467,0.256-32.145,12.959-34.899,30.208l-6.088,38.12
				C1393.627,3140.865,1392.2,3142.042,1390.58,3142.042z"/>
			<g>
				<path style="fill:#91B3FA;" d="M2593.031,2612.004l-1624.164-22.599V840.336c0-37.098,30.074-67.171,67.171-67.171h1495.666
					c34.715,0,62.857,28.142,62.857,62.857L2593.031,2612.004z"/>
				<path style="fill:#BDD0FB;" d="M2540.925,2611.56l-1524.018-21.471V886.682c0-36.769,29.439-66.576,65.753-66.576h1396.734
					c33.982,0,61.53,27.893,61.53,62.3V2611.56z"/>
				<g style="opacity:0.75;">
					<path style="opacity:0.76;fill:#FFFFFF;" d="M2407.511,1905.05H1183.278c-4.848,0-8.779-3.93-8.779-8.779v-583.095
						c0-4.848,3.93-8.779,8.779-8.779h1224.233c4.848,0,8.779,3.93,8.779,8.779v583.095
						C2416.29,1901.12,2412.36,1905.05,2407.511,1905.05z"/>
					<path style="opacity:0.76;fill:#FFFFFF;" d="M2470.069,2146.097H1098.221c-2.414,0-4.37-1.957-4.37-4.37v-124.232
						c0-2.414,1.957-4.37,4.37-4.37h1371.848c2.414,0,4.37,1.957,4.37,4.37v124.232
						C2474.439,2144.141,2472.482,2146.097,2470.069,2146.097z"/>
					<path style="opacity:0.76;fill:#FFFFFF;" d="M2464.759,2366.452H1098.123c-3.853,0-6.976-3.123-6.976-6.976v-119.021
						c0-3.853,3.123-6.976,6.976-6.976h1366.636c3.853,0,6.976,3.123,6.976,6.976v119.021
						C2471.735,2363.329,2468.612,2366.452,2464.759,2366.452z"/>
					<path style="opacity:0.76;fill:#FFFFFF;" d="M2466.857,2572.018H1102.224c-4.406,0-7.977-3.572-7.977-7.977v-117.018
						c0-4.406,3.572-7.978,7.977-7.978h1364.633c4.406,0,7.978,3.572,7.978,7.978v117.018
						C2474.835,2568.447,2471.263,2572.018,2466.857,2572.018z"/>
				</g>
			</g>
		</g>
		<g>
			<g>
				
					<linearGradient id="SVGID_00000152983486607335131990000006400796231189855390_" gradientUnits="userSpaceOnUse" x1="579.3329" y1="1658.5034" x2="940.1273" y2="2434.5515">
					<stop  offset="0" style="stop-color:#09005D"/>
					<stop  offset="1" style="stop-color:#1A0F91"/>
				</linearGradient>
				<path style="fill:url(#SVGID_00000152983486607335131990000006400796231189855390_);" d="M607.779,1956.352
					c0,0,174.276,459.622,229.336,555.235c63.914,110.989,250.575,40.264,241.287-52.622
					c-9.288-92.886-227.374-476.815-227.374-476.815L607.779,1956.352z"/>
				
					<linearGradient id="SVGID_00000147213180293048275010000014107588584036870050_" gradientUnits="userSpaceOnUse" x1="1213.1266" y1="1351.7833" x2="1906.2899" y2="2586.3245">
					<stop  offset="0" style="stop-color:#4042E2"/>
					<stop  offset="1" style="stop-color:#4F52FF"/>
				</linearGradient>
				<polygon style="fill:url(#SVGID_00000147213180293048275010000014107588584036870050_);" points="843.257,1621.541 
					1926.443,1245.983 1915.068,2262.302 813.655,2016.55 				"/>
				<ellipse style="fill:#7D97F4;" cx="1927.465" cy="1757.092" rx="106.419" ry="522.294"/>
				
					<linearGradient id="SVGID_00000169540149566555401790000013406861375105497996_" gradientUnits="userSpaceOnUse" x1="1921.281" y1="1769.2422" x2="2384.1885" y2="1279.1044">
					<stop  offset="0" style="stop-color:#4042E2"/>
					<stop  offset="1" style="stop-color:#4F52FF"/>
				</linearGradient>
				<path style="fill:url(#SVGID_00000169540149566555401790000013406861375105497996_);" d="M1935.542,2243.668
					c-9.618-9.783-30.572-47.519-48.535-145.102c-17.362-94.304-26.922-216.622-26.922-344.422c0-127.8,9.56-250.118,26.922-344.422
					c17.963-97.584,38.917-135.321,48.535-145.104c9.618,9.783,30.572,47.52,48.535,145.104
					c17.362,94.304,26.923,216.622,26.923,344.422c0,127.8-9.561,250.118-26.923,344.422
					C1966.114,2196.149,1945.16,2233.885,1935.542,2243.668z"/>
				<g>
					<defs>
						<path id="SVGID_00000104675577744750067470000005625651149085988259_" d="M1935.542,2243.668
							c-9.618-9.783-30.572-47.519-48.535-145.102c-17.362-94.304-26.922-216.622-26.922-344.422
							c0-127.8,9.56-250.118,26.922-344.422c17.963-97.584,38.917-135.321,48.535-145.104c9.618,9.783,30.572,47.52,48.535,145.104
							c17.362,94.304,154.36,216.622,154.36,344.422c0,127.8-136.998,250.118-154.36,344.422
							C1966.114,2196.149,1945.16,2233.885,1935.542,2243.668z"/>
					</defs>
					<clipPath id="SVGID_00000118355710349923806130000016355227990098522766_">
						<use xlink:href="#SVGID_00000104675577744750067470000005625651149085988259_"  style="overflow:visible;"/>
					</clipPath>
					
						<linearGradient id="SVGID_00000130616429573526329790000006829167981049236864_" gradientUnits="userSpaceOnUse" x1="2179.5361" y1="1602.1293" x2="1616.2529" y2="1931.0863">
						<stop  offset="0" style="stop-color:#09005D"/>
						<stop  offset="1" style="stop-color:#1A0F91"/>
					</linearGradient>
					
						<path style="clip-path:url(#SVGID_00000118355710349923806130000016355227990098522766_);fill:url(#SVGID_00000130616429573526329790000006829167981049236864_);" d="
						M2071.942,1750.254c0,88.744-47.806,160.685-142.425,160.685c-94.619,0-171.323-71.941-171.323-160.685
						c0-88.743,76.704-160.684,171.323-160.684C2024.136,1589.57,2071.942,1661.511,2071.942,1750.254z"/>
				</g>
				
					<linearGradient id="SVGID_00000013181670435577105400000010339721710350869665_" gradientUnits="userSpaceOnUse" x1="1246.7505" y1="851.7159" x2="1042.5262" y2="1246.5491">
					<stop  offset="0" style="stop-color:#09005D"/>
					<stop  offset="1" style="stop-color:#1A0F91"/>
				</linearGradient>
				<path style="fill:url(#SVGID_00000013181670435577105400000010339721710350869665_);" d="M668.556,1599.694
					c50.955-5.918,124.023-8.047,203.026,10.046c-26.029,135.966-22.101,277.684,8.003,424.427l-222.829,0
					c-35.527,0-65.82-25.805-71.361-60.897c-11.105-70.34-24.682-188.565-10.205-283.517
					C582.454,1642.1,620.674,1605.255,668.556,1599.694z"/>
				<path style="fill:#91B3FA;" d="M802.286,1703.828H628.676c-5.893,0-11.092-3.089-13.909-8.266
					c-2.815-5.176-2.585-11.222,0.616-16.168c1.34-2.069,4.104-2.651,6.173-1.322c2.07,1.34,2.663,4.104,1.323,6.176
					c-1.395,2.156-1.495,4.79-0.269,7.048c1.228,2.256,3.496,3.604,6.066,3.604h173.611c3.807,0,6.904-3.095,6.904-6.903v-12.355
					c0-3.807-3.097-6.903-6.904-6.903H627.388c-2.466,0-4.464-1.999-4.464-4.464c0-2.464,1.998-4.464,4.464-4.464h174.898
					c8.731,0,15.833,7.104,15.833,15.831v12.355C818.119,1696.725,811.017,1703.828,802.286,1703.828z"/>
				<path style="fill:#91B3FA;" d="M786.806,1780.716H613.195c-5.893,0-11.092-3.089-13.909-8.266
					c-2.815-5.176-2.585-11.221,0.616-16.168c1.34-2.067,4.105-2.651,6.173-1.323c2.069,1.34,2.662,4.104,1.322,6.176
					c-1.395,2.157-1.495,4.79-0.269,7.048c1.228,2.255,3.496,3.604,6.066,3.604h173.611c3.807,0,6.904-3.095,6.904-6.902v-12.352
					c0-3.807-3.097-6.906-6.904-6.906H611.907c-2.466,0-4.464-2-4.464-4.464c0-2.465,1.998-4.464,4.464-4.464h174.898
					c8.73,0,15.833,7.103,15.833,15.834v12.352C802.638,1773.613,795.536,1780.716,786.806,1780.716z"/>
				<path style="fill:#BDD0FB;" d="M1000.651,1594.033c-1.892,0-3.648-1.212-4.252-3.11c-0.749-2.351,0.551-4.86,2.899-5.609
					l820.393-261.064c2.348-0.747,4.859,0.552,5.608,2.901c0.748,2.351-0.551,4.859-2.899,5.609l-820.393,261.064
					C1001.556,1593.966,1001.1,1594.033,1000.651,1594.033z"/>
				<path style="fill:#BDD0FB;" d="M889.711,1639.384c-1.76,0-3.427-1.046-4.134-2.776c-0.933-2.281,0.161-4.888,2.444-5.821
					l42.223-17.258c2.28-0.939,4.888,0.163,5.821,2.444c0.933,2.281-0.161,4.888-2.444,5.821l-42.223,17.258
					C890.846,1639.28,890.273,1639.384,889.711,1639.384z"/>
				<path style="fill:#91B3FA;" d="M802.286,1870.766H628.676c-5.893,0-11.091-3.09-13.907-8.266
					c-2.816-5.176-2.587-11.222,0.615-16.168c1.34-2.072,4.104-2.656,6.173-1.325c2.07,1.34,2.663,4.104,1.323,6.173
					c-1.397,2.16-1.497,4.796-0.268,7.054c1.228,2.256,3.495,3.604,6.064,3.604h173.611c3.807,0,6.904-3.098,6.904-6.906v-12.352
					c0-3.807-3.097-6.903-6.904-6.903H627.388c-2.466,0-4.464-1.999-4.464-4.464c0-2.465,1.998-4.464,4.464-4.464h174.898
					c8.731,0,15.833,7.104,15.833,15.831v12.352C818.119,1863.662,811.017,1870.766,802.286,1870.766z"/>
				<path style="fill:#91B3FA;" d="M818.542,1970.717H644.931c-5.892,0-11.091-3.09-13.907-8.266
					c-2.816-5.176-2.586-11.222,0.615-16.168c1.341-2.072,4.105-2.656,6.173-1.325c2.069,1.34,2.662,4.104,1.322,6.173
					c-1.396,2.159-1.497,4.795-0.267,7.054c1.228,2.255,3.495,3.604,6.064,3.604h173.611c3.807,0,6.904-3.095,6.904-6.903v-12.355
					c0-3.807-3.097-6.903-6.904-6.903H643.644c-2.466,0-4.464-1.999-4.464-4.464c0-2.465,1.998-4.464,4.464-4.464h174.898
					c8.731,0,15.833,7.103,15.833,15.831v12.355C834.375,1963.613,827.273,1970.717,818.542,1970.717z"/>
				<path style="fill:#91B3FA;" d="M973.598,2514.149c-8,0-16.085-0.863-24.152-2.622c-35.297-7.69-64.032-30.965-78.837-63.856
					l-138.705-308.148c-1.013-2.247-0.01-4.889,2.238-5.903c2.248-1.014,4.892-0.006,5.903,2.24l138.705,308.148
					c13.633,30.281,40.094,51.714,72.597,58.793c31.946,6.967,64.271-1.302,88.693-22.676c1.31-1.145,2.625-2.322,3.946-3.528
					c1.82-1.663,4.643-1.538,6.307,0.285c1.663,1.82,1.536,4.644-0.285,6.307c-1.37,1.253-2.732,2.47-4.09,3.656
					C1025.517,2504.697,1000.047,2514.149,973.598,2514.149z"/>
				<path style="fill:#91B3FA;" d="M715.468,2096.593c-1.703,0-3.329-0.979-4.073-2.63l-15.474-34.377
					c-1.013-2.247-0.01-4.889,2.238-5.903c2.247-1.011,4.892-0.006,5.903,2.238l15.474,34.374c1.013,2.249,0.01,4.891-2.238,5.906
					C716.703,2096.468,716.08,2096.593,715.468,2096.593z"/>
				<path style="fill:#BDD0FB;" d="M2046.579,1745.628c-2.322,0-4.281-1.796-4.448-4.147c-3.085-43.483-18.156-75.901-44.795-96.353
					c-46.066-35.368-111.799-23.214-112.459-23.083c-2.434,0.462-4.761-1.116-5.227-3.537c-0.468-2.421,1.117-4.764,3.539-5.229
					c2.848-0.549,70.367-13.018,119.585,24.766c28.751,22.074,44.99,56.663,48.262,102.802c0.174,2.459-1.677,4.595-4.138,4.769
					C2046.791,1745.625,2046.685,1745.628,2046.579,1745.628z"/>
			</g>
		</g>
		<g>
			
				<linearGradient id="SVGID_00000084489778136493318970000010063228278432534680_" gradientUnits="userSpaceOnUse" x1="1556.3824" y1="944.8984" x2="1685.7246" y2="-110.259">
				<stop  offset="0" style="stop-color:#4042E2"/>
				<stop  offset="1" style="stop-color:#4F52FF"/>
			</linearGradient>
			<path style="fill:url(#SVGID_00000084489778136493318970000010063228278432534680_);" d="M1486.744,915.355h56.325
				c22.952,0,39.661,4.454,50.132,13.362c10.469,8.91,15.704,23.08,15.704,42.508c0,12.786-2.769,23.48-8.305,32.088
				c-5.538,8.606-13.086,13.816-22.649,15.628v1.511c12.481,3.121,21.491,8.961,27.029,17.516
				c5.536,8.557,8.305,19.932,8.305,34.127c0,20.033-5.36,35.711-16.081,47.037c-10.721,11.325-25.393,16.987-44.017,16.987h-66.441
				V915.355z M1525.401,1004.143h18.875c8.656,0,14.747-2.313,18.27-6.945c3.523-4.629,5.285-11.526,5.285-20.687
				c0-9.159-2.014-15.729-6.04-19.706c-4.027-3.975-10.369-5.965-19.026-5.965h-17.364V1004.143z M1525.401,1038.421v61.759h20.687
				c8.556,0,14.923-2.616,19.101-7.851c4.177-5.234,6.267-13.339,6.267-24.312c0-19.729-8.659-29.597-25.972-29.597H1525.401z"/>
			
				<linearGradient id="SVGID_00000114791607339533969750000008398318050175441566_" gradientUnits="userSpaceOnUse" x1="1700.2312" y1="962.5314" x2="1829.5734" y2="-92.6266">
				<stop  offset="0" style="stop-color:#4042E2"/>
				<stop  offset="1" style="stop-color:#4F52FF"/>
			</linearGradient>
			<path style="fill:url(#SVGID_00000114791607339533969750000008398318050175441566_);" d="M1643.483,1136.119V915.355h41.073
				v184.825h56.928v35.939H1643.483z"/>
			
				<linearGradient id="SVGID_00000132779103523573423160000003624771403082925759_" gradientUnits="userSpaceOnUse" x1="1845.8203" y1="980.3777" x2="1975.1624" y2="-74.7792">
				<stop  offset="0" style="stop-color:#4042E2"/>
				<stop  offset="1" style="stop-color:#4F52FF"/>
			</linearGradient>
			<path style="fill:url(#SVGID_00000132779103523573423160000003624771403082925759_);" d="M1919.666,1025.435
				c0,36.542-6.847,64.629-20.535,84.259c-13.691,19.63-33.273,29.445-58.739,29.445c-25.571,0-45.203-9.789-58.892-29.369
				c-13.691-19.58-20.535-47.794-20.535-84.638c0-36.542,6.844-64.553,20.535-84.031c13.69-19.48,33.422-29.219,59.193-29.219
				c25.468,0,44.998,9.791,58.59,29.371C1912.872,960.832,1919.666,988.893,1919.666,1025.435z M1802.942,1025.435
				c0,25.167,3.171,44.345,9.513,57.531c6.342,13.189,15.652,19.782,27.936,19.782c24.763,0,37.145-25.771,37.145-77.314
				c0-51.541-12.282-77.312-36.844-77.312c-12.483,0-21.895,6.568-28.237,19.704
				C1806.113,980.965,1802.942,1000.167,1802.942,1025.435z"/>
			
				<linearGradient id="SVGID_00000072246102727547710910000015010820152476958878_" gradientUnits="userSpaceOnUse" x1="2023.8226" y1="1002.1974" x2="2153.1648" y2="-52.9606">
				<stop  offset="0" style="stop-color:#4042E2"/>
				<stop  offset="1" style="stop-color:#4F52FF"/>
			</linearGradient>
			<path style="fill:url(#SVGID_00000072246102727547710910000015010820152476958878_);" d="M2018.572,1013.656h67.498v113.252
				c-19.128,8.154-39.464,12.23-61.005,12.23c-25.671,0-45.429-9.763-59.268-29.294c-13.843-19.528-20.763-47.664-20.763-84.41
				c0-35.433,7.928-63.168,23.783-83.202c15.855-20.032,38.026-30.049,66.516-30.049c17.615,0,34.428,4.529,50.434,13.59
				l-12.985,33.522c-12.485-7.248-24.16-10.873-35.033-10.873c-15.606,0-27.961,6.972-37.07,20.914
				c-9.113,13.944-13.667,32.944-13.667,57.003c0,24.765,3.296,43.742,9.89,56.928c6.593,13.19,16.181,19.781,28.766,19.781
				c6.645,0,13.387-0.853,20.235-2.566v-50.586h-27.331V1013.656z"/>
		</g>
		<g>
			<path style="fill:#7D97F4;" d="M2484.139,1481.312l-261.874,14.865c-21.922,1.244-40.784-15.338-42.359-37.238l-21.844-303.792
				c-1.673-23.268,16.753-43.067,40.082-43.067h283.718c22.194,0,40.185,17.991,40.185,40.185v288.927
				C2522.047,1462.501,2505.414,1480.105,2484.139,1481.312z"/>
			<g>
				<path style="fill:#FFFFFF;" d="M2340.002,1459.953L2340.002,1459.953c-13.229,0-25.216-6.757-32.067-18.076
					c-38.615-63.795-84.646-147.818-84.646-185.817c0-59.382,52.357-107.691,116.713-107.691
					c64.355,0,116.713,48.309,116.713,107.691c0,38.002-46.031,122.024-84.646,185.819
					C2365.217,1453.197,2353.229,1459.953,2340.002,1459.953z M2340.002,1163.304c-56.119,0-101.776,41.611-101.776,92.756
					c0,26.569,30.065,91.478,82.487,178.084c4.121,6.808,11.332,10.872,19.288,10.872c7.957,0,15.168-4.064,19.29-10.874
					c52.422-86.603,82.487-151.512,82.487-178.083C2441.778,1204.915,2396.121,1163.304,2340.002,1163.304z"/>
				<path style="fill:#FFFFFF;" d="M2330.959,1331.251c-39.902,0-72.364-32.46-72.364-72.362c0-4.125,3.344-7.468,7.468-7.468
					s7.468,3.342,7.468,7.468c0,31.666,25.761,57.427,57.427,57.427c31.666,0,57.427-25.761,57.427-57.427
					c0-31.666-25.761-57.428-57.427-57.428c-18.311,0-35.101,8.43-46.065,23.13c-2.464,3.307-7.145,3.989-10.451,1.522
					c-3.307-2.467-3.988-7.146-1.521-10.452c13.608-18.244,35.304-29.135,58.037-29.135c39.901,0,72.364,32.462,72.364,72.364
					S2370.86,1331.251,2330.959,1331.251z"/>
			</g>
		</g>
		<g>
			<path style="fill:#7D97F4;" d="M3095.879,1678.063l-319.395-5.257c-22.925-0.377-40.888-19.829-39.444-42.712l21.01-332.831
				c1.209-19.157,15.799-34.785,34.828-37.305l359.632-47.636c26.648-3.53,49.18,19.592,44.965,46.139l-61.248,385.725
				C3133.09,1663.949,3115.888,1678.393,3095.879,1678.063z"/>
			<g style="opacity:0.9;">
				<path style="fill:#FFFFFF;" d="M2950.149,1589.224c-69.265,0-125.616-56.351-125.616-125.615s56.351-125.615,125.616-125.615
					s125.615,56.351,125.615,125.615S3019.414,1589.224,2950.149,1589.224z M2950.149,1359.043
					c-57.658,0-104.565,46.907-104.565,104.565c0,57.658,46.908,104.565,104.565,104.565c57.657,0,104.565-46.907,104.565-104.565
					C3054.714,1405.951,3007.806,1359.043,2950.149,1359.043z"/>
				<path style="fill-rule:evenodd;clip-rule:evenodd;fill:#FFFFFF;" d="M2910.799,1511.984v-90.308
					c0-9.65,10.504-15.631,18.802-10.707l76.097,45.154c8.128,4.823,8.128,16.59,0,21.413l-76.097,45.154
					C2921.302,1527.614,2910.799,1521.634,2910.799,1511.984z"/>
			</g>
		</g>
		<g>
			<path style="fill:#7D97F4;" d="M2338.355,2157.12l-191.839,20.208c-23.728,2.5-44.395-16.104-44.395-39.964v-221.43
				c0-19.981,14.681-36.927,34.458-39.775l191.839-27.622c24.223-3.488,45.912,15.302,45.912,39.775v228.843
				C2374.33,2137.72,2358.806,2154.966,2338.355,2157.12z"/>
			<path style="fill:#FFFFFF;" d="M2222.768,2083.677c-21.576,0-44.006-9.329-50.647-23.22
				c-7.599-15.895,7.541-27.215,12.362-30.307c14.628-9.38,27.637-12.602,38.66-9.57c11.47,3.151,16.123,11.866,16.615,12.851
				l-14.89,7.459l0.091,0.175c-0.077-0.137-1.962-3.377-6.546-4.508c-4.304-1.067-12.123-0.605-24.94,7.614
				c-5.422,3.476-7.55,6.539-6.325,9.102c4.29,8.974,30.721,18.093,50.217,11.596c6.488-2.163,12.127-21.072,6.663-67.244
				c-3.992-33.742-12.035-66.581-12.115-66.909c-0.749-3.039,0.27-6.241,2.636-8.289c2.369-2.048,5.686-2.597,8.583-1.418
				c1.978,0.803,48.583,20.091,61.25,56.513c5.751,16.534,3.679,33.722-6.159,51.082c-2.268,4.002-7.351,5.406-11.351,3.139
				c-4.002-2.267-5.407-7.349-3.139-11.35c7.466-13.174,9.079-25.393,4.934-37.356c-6.144-17.726-23.681-31.006-36.661-38.764
				c2.723,13.062,6.256,31.921,8.562,51.394c6.138,51.865,0.439,78.876-17.937,85
				C2236.459,2082.725,2229.656,2083.677,2222.768,2083.677z"/>
		</g>
		<g>
			<path style="fill:#7D97F4;" d="M2951.034,1162.635h-290.194c-22.194,0-40.185-17.992-40.185-40.185V831.477
				c0-20.937,16.075-38.365,36.943-40.054l309.183-25.024c24.357-1.971,44.82,18.072,43.355,42.465l-18.99,315.996
				C2989.872,1146.079,2972.292,1162.635,2951.034,1162.635z"/>
			<g>
				<path style="fill:#FFFFFF;" d="M2882.59,894.501c-21.186-20.824-54.229-14.56-76.979,4.538
					c-3.26,2.738-7.986,2.769-11.292,0.088c-23.053-18.696-56.061-24.388-76.883-3.205c-22.606,23.001-22.289,59.971,0.712,82.578
					l76.958,75.644c3.496,3.436,9.117,3.387,12.553-0.109l75.644-76.957C2905.908,954.079,2905.59,917.108,2882.59,894.501z"/>
			</g>
		</g>
		<g>
			
				<ellipse transform="matrix(0.2757 -0.9612 0.9612 0.2757 247.9835 3685.2395)" style="fill:#7D97F4;" cx="2569.351" cy="1678.069" rx="149.816" ry="149.817"/>
			<g>
				<path style="fill:#FFFFFF;" d="M2533.02,1628.293c0-3.861-3.13-6.992-6.992-6.992h-25.371c-3.861,0-6.992,3.13-6.992,6.992
					v110.64c0,3.861,3.13,6.992,6.992,6.992h25.371c3.861,0,6.992-3.13,6.992-6.992V1628.293z"/>
				<path style="fill:#FFFFFF;" d="M2618.91,1621.301h-24.671v-29.838c0-9.696-5.714-16.076-15.41-16.076h-0.621
					c-9.697,0-17.557,7.121-17.557,16.816l-8.666,29.918c-3.862,0-10.219,2.76-10.219,6.622v114.687
					c0,3.862,9.585,9.053,13.446,9.053h5.438h58.26c14.505,0,25.616-13.82,25.616-28.325v-76.144
					C2644.525,1633.511,2633.414,1621.301,2618.91,1621.301z"/>
			</g>
		</g>
		<g>
			
				<linearGradient id="SVGID_00000124128206027422500670000015263310003266519721_" gradientUnits="userSpaceOnUse" x1="10747.4805" y1="3100.2737" x2="10281.9727" y2="3606.6165" gradientTransform="matrix(-1 0.0095 0.0095 1 13468.1055 -63.4747)">
				<stop  offset="0" style="stop-color:#09005D"/>
				<stop  offset="1" style="stop-color:#1A0F91"/>
			</linearGradient>
			<path style="fill:url(#SVGID_00000124128206027422500670000015263310003266519721_);" d="M2897.583,3175.215
				c0,0,5.082,27.247,7.702,54.242c1.025,10.55-7.028,19.795-17.614,20.338c-35.964,1.841-112.898,5.49-140.526,4.521
				c-4.153-0.146-6.908-4.37-5.409-8.246l0,0c1.257-3.247,3.715-5.888,6.866-7.372l126.567-59.639L2897.583,3175.215z"/>
			
				<linearGradient id="SVGID_00000090278849122185154640000002720176341990015655_" gradientUnits="userSpaceOnUse" x1="10596.3838" y1="3137.8755" x2="10637.7324" y2="3137.8755" gradientTransform="matrix(-1 0.0095 0.0095 1 13468.1055 -63.4747)">
				<stop  offset="0" style="stop-color:#FEBBBA"/>
				<stop  offset="1" style="stop-color:#FF928E"/>
			</linearGradient>
			<path style="fill:url(#SVGID_00000090278849122185154640000002720176341990015655_);" d="M2901.38,3159.141l-3.562,32.683
				c0,0-22.17,10.579-37.489-0.949l8.875-36.469L2901.38,3159.141z"/>
			
				<linearGradient id="SVGID_00000085929759267505997780000002014093344000336288_" gradientUnits="userSpaceOnUse" x1="7128.4521" y1="-14447.6719" x2="7502.8643" y2="-14910.582" gradientTransform="matrix(-1 0 0 1 -3941.2642 0)">
				<stop  offset="0" style="stop-color:#09005D"/>
				<stop  offset="1" style="stop-color:#1A0F91"/>
			</linearGradient>
			<path style="fill:url(#SVGID_00000085929759267505997780000002014093344000336288_);" d="M2892.614,2545.409
				c1.754,8.51,13.039,425.35-29.743,612.608c-0.698,3.055,0.877,6.183,3.79,7.341c6.862,2.728,20.301,6.644,36.365,7.03
				c4.974,0.12,9.403-3.155,10.76-7.942c12.325-43.47,71.295-261.237,77.278-468.783c6.687-231.913-0.075-7.894-0.075-7.894
				l-6.585-143.252L2892.614,2545.409z"/>
			
				<linearGradient id="SVGID_00000126320130813407902390000012532300004621543871_" gradientUnits="userSpaceOnUse" x1="10643.0518" y1="3004.249" x2="10177.5225" y2="3510.6143" gradientTransform="matrix(-1 0.0095 0.0095 1 13468.1055 -63.4747)">
				<stop  offset="0" style="stop-color:#09005D"/>
				<stop  offset="1" style="stop-color:#1A0F91"/>
			</linearGradient>
			<path style="fill:url(#SVGID_00000126320130813407902390000012532300004621543871_);" d="M3043.955,3188.059
				c0,0,7.806,13.706,15.585,50.247c1.405,6.6-3.155,12.972-9.863,13.696c-11.869,1.282-30.144,2.958-44.796,2.997
				c-6.753,0.018-12.08-5.813-11.331-12.524c1.495-13.38,6.342-35.354,21.796-52.592L3043.955,3188.059z"/>
			
				<linearGradient id="SVGID_00000042698478691640734820000003600230864652783235_" gradientUnits="userSpaceOnUse" x1="10447.3574" y1="3135.7493" x2="10483.0576" y2="3135.7493" gradientTransform="matrix(-1 0.0095 0.0095 1 13468.1055 -63.4747)">
				<stop  offset="0" style="stop-color:#FEBBBA"/>
				<stop  offset="1" style="stop-color:#FF928E"/>
			</linearGradient>
			<path style="fill:url(#SVGID_00000042698478691640734820000003600230864652783235_);" d="M3050.295,3146.004l-8.58,49.457
				c0,0-8.885,6.742-26.634,2.085l3.814-53.16L3050.295,3146.004z"/>
			
				<linearGradient id="SVGID_00000108302856539386858700000003090252015072868246_" gradientUnits="userSpaceOnUse" x1="7062.3506" y1="-14501.1602" x2="7436.7603" y2="-14964.0674" gradientTransform="matrix(-1 0 0 1 -3941.2642 0)">
				<stop  offset="0" style="stop-color:#09005D"/>
				<stop  offset="1" style="stop-color:#1A0F91"/>
			</linearGradient>
			<path style="fill:url(#SVGID_00000108302856539386858700000003090252015072868246_);" d="M3069.124,2556.521
				c38.546,219.618-2.719,543.739-17.074,607.237c-0.879,3.888-3.981,6.89-7.906,7.579c-6.667,1.17-17.651,2.178-28.519-0.866
				c-3.744-1.048-6.4-4.391-6.589-8.276c-2.496-51.201-1.884-365.683-37.03-489.63c-1.781-6.282-5.679-11.738-11.037-15.47
				l-66.363-46.231l-5.776-75.698L3069.124,2556.521z"/>
			<g>
				
					<linearGradient id="SVGID_00000103969399830192669050000015389390584082026685_" gradientUnits="userSpaceOnUse" x1="-4741.9438" y1="1555.3783" x2="-5226.2031" y2="2549.8379" gradientTransform="matrix(-1 0 0 1 -2184.1692 0)">
					<stop  offset="0" style="stop-color:#4042E2"/>
					<stop  offset="1" style="stop-color:#4F52FF"/>
				</linearGradient>
				<path style="fill:url(#SVGID_00000103969399830192669050000015389390584082026685_);" d="M2832.9,2141.944
					c109.21-2.846,230.021,26.488,230.021,26.488c34.371,189.667,9.596,409.049,9.596,409.049
					c-84.349,22.982-180.08-11.842-180.08-11.842c-14.812-79.271-82.52-302.121-82.52-302.121
					c-53.431-6.114-97.542-21.092-133.94-41.103c27.311-32.275,39.942-73.132,45.365-97.263
					C2760.076,2136.784,2799.216,2142.822,2832.9,2141.944z"/>
				
					<linearGradient id="SVGID_00000091733781606646196200000008858155786812906167_" gradientUnits="userSpaceOnUse" x1="10766.583" y1="2059.1045" x2="10977.8398" y2="2059.1045" gradientTransform="matrix(-1 0.0095 0.0095 1 13468.1055 -63.4747)">
					<stop  offset="0" style="stop-color:#FEBBBA"/>
					<stop  offset="1" style="stop-color:#FF928E"/>
				</linearGradient>
				<path style="fill:url(#SVGID_00000091733781606646196200000008858155786812906167_);" d="M2508.727,1984.136
					c10.606-13.063,24.245-7.061,24.245-7.061c16.722,67.744,101.528,121.992,188.371,148.076
					c-5.424,24.132-18.055,64.989-45.365,97.263C2531.507,2142.989,2508.727,1984.136,2508.727,1984.136z"/>
			</g>
			<g>
				
					<linearGradient id="SVGID_00000100352338922750307440000012251272591451190196_" gradientUnits="userSpaceOnUse" x1="2550.9961" y1="2043.3835" x2="2472.71" y2="1883.4076">
					<stop  offset="0" style="stop-color:#FEBBBA"/>
					<stop  offset="1" style="stop-color:#FF928E"/>
				</linearGradient>
				<path style="fill:url(#SVGID_00000100352338922750307440000012251272591451190196_);" d="M2511.363,1987.406
					c-1.089,3.58,11.964,8.891,19.48-5.78c0.2-6.999,4.17-37.012-0.066-42.672c-22.555-30.143-66.086-67.783-66.086-67.783
					c-7.227,7.269-1.149,14.283-1.149,14.283l21.15,21.615c-4.305,7.957-9.584,14.69-11.997,24.288
					c-1.827,7.268-0.593,15.006,3.132,21.569c3.739,6.588,8.837,15.148,13.642,21.84
					C2498.565,1987.433,2511.363,1987.406,2511.363,1987.406z"/>
				
					<linearGradient id="SVGID_00000177449891481571587440000000547594965985721011_" gradientUnits="userSpaceOnUse" x1="10976.8271" y1="1916.2853" x2="11035.9766" y2="1825.3427" gradientTransform="matrix(-1 0.0095 0.0095 1 13468.1055 -63.4747)">
					<stop  offset="0" style="stop-color:#FEBBBA"/>
					<stop  offset="1" style="stop-color:#FF928E"/>
				</linearGradient>
				<path style="fill:url(#SVGID_00000177449891481571587440000000547594965985721011_);" d="M2493.987,1921.137l19.238,15.996
					l6.146,16.049l-16.834,19.037c0,0-6.026-31.904-10.344-38.78C2487.874,1926.563,2490.047,1923.198,2493.987,1921.137z"/>
			</g>
			
				<linearGradient id="SVGID_00000014594163657655463860000004861554548249276075_" gradientUnits="userSpaceOnUse" x1="-4891.6538" y1="1482.4757" x2="-5375.9121" y2="2476.9331" gradientTransform="matrix(-1 0 0 1 -2184.1692 0)">
				<stop  offset="0" style="stop-color:#4042E2"/>
				<stop  offset="1" style="stop-color:#4F52FF"/>
			</linearGradient>
			<path style="fill:url(#SVGID_00000014594163657655463860000004861554548249276075_);" d="M3022.035,2274.595l40.886-106.164
				c0,0,102.686,68.348,120.303,156.079c-19.264,1.604-54.295,6.953-88.466,24.617
				C3086.818,2307.7,3022.035,2274.595,3022.035,2274.595z"/>
			
				<linearGradient id="SVGID_00000085940925728917387670000010481389614676497291_" gradientUnits="userSpaceOnUse" x1="10304.3096" y1="2358.3159" x2="10571.6494" y2="2358.3159" gradientTransform="matrix(-1 0.0095 0.0095 1 13468.1055 -63.4747)">
				<stop  offset="0" style="stop-color:#FEBBBA"/>
				<stop  offset="1" style="stop-color:#FF928E"/>
			</linearGradient>
			<path style="fill:url(#SVGID_00000085940925728917387670000010481389614676497291_);" d="M2933.827,2374.968
				c0,0,115.166,63.644,153.288,7.997c7.915-11.555,9.725-22.98,7.644-33.836c34.171-17.665,69.201-23.014,88.466-24.617
				c5.311,26.449,2.906,54.655-12.392,83.285c-66.521,124.493-251.896-4.442-251.896-4.442L2933.827,2374.968z"/>
			
				<linearGradient id="SVGID_00000160887021862445087530000007858029917848917676_" gradientUnits="userSpaceOnUse" x1="2993.7483" y1="2255.082" x2="2891.636" y2="2054.2615">
				<stop  offset="0" style="stop-color:#FEBBBA"/>
				<stop  offset="1" style="stop-color:#FF928E"/>
			</linearGradient>
			<path style="fill:url(#SVGID_00000160887021862445087530000007858029917848917676_);" d="M2942.693,2052.212l35.714,100.176
				c0.591,1.659-0.075,3.51-1.609,4.377c-9.424,5.328-43.411,20.793-84.792-4.892c-4.311-2.676-7.27-7.079-7.969-12.104
				l-12.084-86.882L2942.693,2052.212z"/>
			<g>
				
					<linearGradient id="SVGID_00000158718928757063931820000004542003178199368855_" gradientUnits="userSpaceOnUse" x1="8257.8037" y1="-4232.0464" x2="8354.8096" y2="-4392.022" gradientTransform="matrix(-0.7523 -0.6588 -0.6588 0.7523 8334.7021 -818.1582)">
					<stop  offset="0" style="stop-color:#FEBBBA"/>
					<stop  offset="1" style="stop-color:#FF928E"/>
				</linearGradient>
				<path style="fill:url(#SVGID_00000158718928757063931820000004542003178199368855_);" d="M2866.184,1959.861
					c0,0-37.479,72.204-32.31,101.176c5.169,28.973,52.448,26.438,93.525,2.475l28.122-77.846L2866.184,1959.861z"/>
				
					<linearGradient id="SVGID_00000147205848315418507370000003035431856445696430_" gradientUnits="userSpaceOnUse" x1="2208.1848" y1="5541.0181" x2="2241.2251" y2="5729.4707" gradientTransform="matrix(-0.7523 -0.6588 -0.6588 0.7523 8334.7021 -818.1582)">
					<stop  offset="0" style="stop-color:#09005D"/>
					<stop  offset="1" style="stop-color:#1A0F91"/>
				</linearGradient>
				<path style="fill:url(#SVGID_00000147205848315418507370000003035431856445696430_);" d="M2925.21,2025.436
					c-1.686-0.727-2.324-2.777-1.334-4.322c3.014-4.7,8.654-14.284,10.404-22.645c0,0,6.818-4.459-17.559-10.049
					c-24.379-5.59-60.737-14.28-68.558-34.911c-7.626-20.115,11.42-71.062,42.965-30.914c1.2,1.528,3.523,1.54,4.692-0.012
					c5.043-6.696,18.342-20.624,37.066-12.436c17.522,7.662,19.609,20.428,19.431,26.875c-0.052,1.896,1.657,3.354,3.517,2.981
					c8.805-1.767,29.96-3.414,40.048,18.208c8.308,17.809,3.115,27.985-1.655,32.983c-1.545,1.619-0.836,4.255,1.311,4.889
					c5.815,1.72,13.347,6.565,12.728,20.154c-0.857,18.787-21.867,17.333-27.852,16.534c-0.981-0.13-1.965,0.215-2.621,0.955
					c-5.071,5.72-27.933,30.023-52.897,33.164c-2.162,0.272-3.86-1.849-3.17-3.916l10.516-31.543
					c0.488-1.465-0.226-3.06-1.643-3.672L2925.21,2025.436z"/>
				
					<linearGradient id="SVGID_00000102537536258761704800000007285089745188605845_" gradientUnits="userSpaceOnUse" x1="8223.8672" y1="-4252.6265" x2="8320.873" y2="-4412.6021" gradientTransform="matrix(-0.7523 -0.6588 -0.6588 0.7523 8334.7021 -818.1582)">
					<stop  offset="0" style="stop-color:#FEBBBA"/>
					<stop  offset="1" style="stop-color:#FF928E"/>
				</linearGradient>
				<path style="fill:url(#SVGID_00000102537536258761704800000007285089745188605845_);" d="M2920.905,2029.94
					c0,0,26.995-18.903,29.131-3.222c2.134,15.681-24.252,22.975-37.412,17.246L2920.905,2029.94z"/>
			</g>
			<g>
				<g>
					
						<linearGradient id="SVGID_00000006669034074081542910000012699921024196604305_" gradientUnits="userSpaceOnUse" x1="10352.6416" y1="2222.8643" x2="10500.1592" y2="2837.5212" gradientTransform="matrix(-1 0 0 1 13199.8164 0)">
						<stop  offset="0" style="stop-color:#09005D"/>
						<stop  offset="1" style="stop-color:#1A0F91"/>
					</linearGradient>
					<path style="fill:url(#SVGID_00000006669034074081542910000012699921024196604305_);" d="M2957.363,2475.55l-62.735-219.087
						c-0.712-2.487-2.834-4.301-5.403-4.6c-11.367-1.326-44.303-5.05-82.331-8.266c-45.806-3.875-99-7.014-130.787-4.343
						c-4.519,0.38-7.25,5.159-5.24,9.224c18.076,36.571,92.43,185.329,129.664,234.062c1.234,1.614,3.141,2.558,5.173,2.539
						l145.557-1.354C2955.495,2483.685,2958.529,2479.622,2957.363,2475.55z"/>
					
						<linearGradient id="SVGID_00000115507257715742910780000016014231112722109850_" gradientUnits="userSpaceOnUse" x1="10251.5586" y1="2385.4736" x2="10335.1387" y2="2385.4736" gradientTransform="matrix(-1 0 0 1 13199.8164 0)">
						<stop  offset="0" style="stop-color:#FEBBBA"/>
						<stop  offset="1" style="stop-color:#FF928E"/>
					</linearGradient>
					<path style="fill:url(#SVGID_00000115507257715742910780000016014231112722109850_);" d="M2942.206,2422.618
						c0,0,8.74-35.935,5.214-48.684c-3.525-12.749-10.355-29.141-33.121-25.498c-22.767,3.642-49.622,13.233-49.622,13.233
						s1.356,16.606,18.659,11.248l-10.73,8.303c0,0,1.534,13.296,16.148,6.193l-9.979,11.01c0,0,6.277,10.92,17.03,3.917
						C2906.558,2395.335,2911.712,2426.946,2942.206,2422.618z"/>
				</g>
				<path style="fill:#7D97F4;" d="M2811.076,2308.999c0,10.171-8.245,18.416-18.416,18.416c-10.17,0-18.416-8.244-18.416-18.416
					s8.245-18.416,18.416-18.416C2802.831,2290.583,2811.076,2298.827,2811.076,2308.999z"/>
				<path style="fill:#91B3FA;" d="M2887.546,2321.133l4.663-1.377l-12.774-43.327c-2.077-7.048-7.768-12.344-14.849-13.821
					c-40.485-8.448-147.113-10.177-151.633-10.246l-0.073,4.863c1.102,0.017,110.682,1.788,150.714,10.141
					c5.325,1.111,9.608,5.112,11.178,10.44L2887.546,2321.133z"/>
			</g>
		</g>
	</g>
</g>
</svg>
